<svg 
 xmlns="http://www.w3.org/2000/svg"
 xmlns:xlink="http://www.w3.org/1999/xlink"
 width="76px" height="88px">
<path fill-rule="evenodd"  fill="rgb(200, 126, 107)"
 d="M73.227,48.801 C70.554,51.550 69.528,54.887 68.733,58.550 C67.757,63.045 68.427,67.238 68.037,71.675 C67.992,71.736 67.945,71.797 67.902,71.860 C67.722,72.114 67.795,72.349 67.960,72.495 C67.958,72.517 67.957,72.541 67.955,72.562 C67.486,73.476 66.995,74.370 66.514,75.227 C64.669,72.066 62.630,68.978 60.474,65.957 C61.144,63.829 61.451,61.519 61.523,59.140 C61.542,59.117 61.569,59.112 61.584,59.081 C66.346,49.709 65.118,37.180 58.319,29.158 C58.141,28.948 57.740,28.869 57.531,29.091 C54.295,32.505 54.647,37.962 54.811,42.303 C55.067,48.983 57.714,54.829 59.790,61.089 C59.727,62.303 59.664,63.521 59.610,64.751 C55.605,59.230 51.286,53.920 47.261,48.754 C47.376,47.133 47.333,45.495 47.188,43.854 C47.406,43.994 47.739,43.920 47.799,43.575 C49.452,34.062 48.147,22.546 40.816,15.474 C40.520,15.189 39.968,15.200 39.824,15.651 C36.645,25.505 38.741,35.426 45.778,43.060 C45.943,44.531 46.102,46.003 46.267,47.480 C42.571,42.708 38.743,37.987 34.650,33.528 C34.572,30.727 33.773,27.966 32.721,25.253 C32.183,17.432 30.803,8.954 23.908,4.166 C23.628,3.971 23.243,4.111 23.122,4.418 C20.425,11.269 26.269,23.064 32.231,27.220 C32.773,28.917 33.254,30.632 33.605,32.385 C30.807,29.405 27.879,26.556 24.772,23.913 C23.767,21.546 22.390,19.374 20.923,17.265 C20.995,17.154 21.026,17.012 20.962,16.849 C19.411,12.834 17.736,9.647 15.105,6.253 C13.269,3.884 11.448,1.082 8.487,0.024 C8.172,-0.089 7.813,0.133 7.789,0.466 C7.247,7.588 14.017,14.760 20.268,17.494 C20.275,17.497 20.280,17.492 20.286,17.494 C20.913,18.409 21.503,19.345 21.986,20.293 C22.321,20.953 22.574,21.639 22.840,22.311 C21.282,21.059 19.675,19.866 18.021,18.728 C16.738,15.660 13.045,12.961 10.368,11.366 C7.110,9.425 3.353,8.982 0.168,11.237 C-0.036,11.382 -0.042,11.698 0.109,11.877 C4.369,16.889 10.600,18.885 17.101,19.094 C17.292,19.291 17.482,19.484 17.674,19.668 C17.830,19.818 18.124,19.792 18.245,19.633 C20.075,20.989 21.849,22.404 23.567,23.878 C23.734,24.171 23.915,24.457 24.133,24.727 C24.286,24.917 24.495,24.927 24.664,24.843 C25.014,25.151 25.349,25.472 25.693,25.785 C24.887,25.537 24.055,25.362 23.308,25.201 C22.958,25.127 22.609,25.048 22.259,24.973 C22.336,24.809 22.316,24.581 22.167,24.446 C18.888,21.525 15.039,20.788 10.786,20.471 C9.056,20.341 3.127,19.509 2.287,21.830 C1.280,24.609 8.100,25.587 9.530,26.197 C13.850,28.037 19.981,30.700 23.713,26.434 C23.787,26.351 23.775,26.265 23.735,26.187 C24.187,26.304 24.639,26.419 25.087,26.555 C25.949,26.817 26.732,27.238 27.570,27.516 C30.985,30.765 34.190,34.234 37.253,37.841 C35.950,37.394 34.410,37.337 33.171,37.278 C32.769,37.258 32.368,37.282 31.966,37.288 C32.065,37.090 31.997,36.799 31.753,36.678 C26.496,34.063 17.687,33.303 12.890,37.149 C12.642,37.346 12.652,37.673 12.821,37.909 C16.462,43.030 30.712,44.596 33.698,38.016 C34.374,38.084 35.046,38.197 35.714,38.384 C36.839,38.703 37.781,39.380 38.866,39.765 C40.733,42.029 42.552,44.340 44.328,46.689 C45.053,47.649 45.775,48.608 46.498,49.567 C46.500,49.590 46.502,49.611 46.506,49.634 C46.524,49.795 46.632,49.882 46.756,49.908 C47.393,50.753 48.032,51.597 48.668,52.442 C47.864,52.178 46.965,52.048 46.030,51.996 C46.014,51.943 46.011,51.891 45.963,51.839 C43.340,48.943 37.352,48.916 33.778,48.979 C29.619,49.054 24.999,50.014 21.879,52.901 C21.643,53.120 21.667,53.449 21.914,53.646 C25.201,56.272 30.179,56.569 34.210,57.050 C38.862,57.604 43.437,57.152 46.528,53.336 C47.863,53.694 49.077,54.258 50.407,54.764 C54.005,59.582 57.525,64.429 60.869,69.395 C60.021,68.942 59.107,68.594 58.158,68.318 C55.190,65.765 50.664,64.154 47.102,63.204 C42.789,62.054 38.236,62.380 34.831,65.433 C34.623,65.622 34.548,65.980 34.763,66.198 C40.503,72.014 52.522,75.613 59.546,69.827 C60.592,70.331 61.539,70.969 62.410,71.720 C65.609,76.595 68.626,81.594 71.337,86.816 C71.540,87.209 72.109,86.942 71.959,86.535 C70.640,82.966 68.958,79.498 67.034,76.116 C67.815,74.840 68.587,73.414 69.258,71.923 C72.100,68.905 75.127,66.114 75.769,61.808 C76.428,57.383 75.477,53.222 74.144,49.004 C74.036,48.662 73.475,48.547 73.227,48.801 ZM56.551,48.666 C55.426,44.580 55.645,39.959 56.026,35.777 C56.330,32.437 57.469,29.205 60.114,33.545 C61.716,36.175 62.438,39.245 62.926,42.243 C63.732,47.185 62.733,51.938 61.512,56.674 C61.367,52.149 60.542,47.528 59.844,43.570 C59.782,43.210 59.214,43.307 59.280,43.665 C60.230,48.849 60.138,53.844 59.899,58.896 C58.911,55.449 57.505,52.133 56.551,48.666 ZM40.047,18.909 C41.205,13.783 45.823,26.524 46.318,28.164 C47.731,32.840 47.021,37.401 46.993,42.110 C46.460,37.949 45.390,33.783 44.603,29.813 C44.524,29.414 43.903,29.519 43.974,29.917 C44.659,33.788 45.148,37.634 45.594,41.490 C40.911,34.438 38.043,27.782 40.047,18.909 ZM23.732,10.602 C23.353,8.891 23.349,7.173 23.805,5.482 C23.897,5.144 28.337,10.690 28.737,11.490 C30.308,14.642 30.755,18.171 31.206,21.656 C30.196,19.384 29.153,17.152 28.365,14.962 C28.252,14.650 27.790,14.867 27.893,15.175 C29.097,18.732 30.546,22.214 31.758,25.762 C27.868,21.459 24.991,16.274 23.732,10.602 ZM8.814,3.663 C7.962,0.615 10.527,2.634 11.517,3.724 C12.465,4.769 13.297,5.928 14.148,7.046 C15.693,9.068 16.884,11.055 18.001,13.127 C17.240,12.085 16.368,11.046 15.460,10.548 C15.456,10.546 15.454,10.549 15.451,10.548 C15.419,10.529 15.380,10.524 15.345,10.536 C15.327,10.541 15.315,10.556 15.301,10.569 C15.285,10.580 15.268,10.589 15.260,10.606 C15.242,10.640 15.240,10.677 15.254,10.713 C15.254,10.715 15.252,10.716 15.252,10.720 C15.721,12.066 17.394,13.545 18.217,14.646 C18.539,15.078 18.869,15.519 19.199,15.965 C14.689,12.910 10.305,8.997 8.814,3.663 ZM7.874,16.423 C5.759,15.689 3.948,14.441 2.317,12.949 C0.287,11.092 3.331,10.605 4.807,10.571 C9.321,10.471 12.223,13.643 14.948,16.729 C14.568,16.495 14.195,16.254 13.809,16.026 C13.807,16.021 13.813,16.018 13.810,16.013 C13.680,15.867 13.550,15.721 13.420,15.574 C13.389,15.540 13.334,15.585 13.363,15.623 C13.436,15.712 13.509,15.803 13.583,15.894 C13.102,15.610 12.626,15.322 12.137,15.051 C11.928,14.934 11.710,15.230 11.920,15.358 C13.424,16.276 14.875,17.251 16.305,18.251 C16.332,18.281 16.361,18.311 16.390,18.344 C13.551,17.693 10.654,17.388 7.874,16.423 ZM9.829,25.373 C8.588,24.830 7.268,24.477 5.981,24.055 C4.249,23.489 2.090,21.915 5.004,21.439 C7.510,21.030 10.246,21.385 12.752,21.668 C14.271,21.838 15.771,22.072 17.224,22.570 C18.618,23.047 19.789,23.977 21.053,24.712 C19.164,24.309 17.273,23.912 15.388,23.481 C15.212,23.440 15.041,23.683 15.228,23.787 C17.089,24.815 19.175,25.186 21.242,25.608 C21.935,25.751 22.622,25.905 23.306,26.071 C19.114,29.398 14.157,27.269 9.829,25.373 ZM16.740,39.577 C16.149,39.333 13.567,37.996 14.207,37.483 C15.991,36.061 18.544,35.781 20.740,35.726 C24.120,35.640 27.220,36.847 30.469,37.339 C28.419,37.489 26.377,37.833 24.333,38.027 C24.045,38.054 24.128,38.477 24.407,38.459 C26.929,38.295 29.442,37.970 31.971,37.935 C32.320,37.931 32.660,37.966 33.002,37.984 C29.605,42.495 21.256,41.443 16.740,39.577 ZM32.549,55.926 C30.627,55.684 28.729,55.350 26.847,54.891 C26.365,54.772 22.624,53.512 23.127,53.127 C26.265,50.712 30.891,50.260 34.715,50.216 C37.997,50.178 40.743,51.194 43.701,52.012 C41.339,52.153 38.988,52.596 37.406,52.787 C37.055,52.828 37.151,53.354 37.498,53.317 C39.777,53.080 42.037,52.878 44.332,52.982 C44.825,53.005 45.288,53.070 45.737,53.156 C42.141,56.883 37.307,56.529 32.549,55.926 ZM45.661,70.988 C43.387,70.479 41.217,69.516 39.212,68.365 C38.369,67.880 37.605,67.279 36.849,66.678 C35.239,65.395 37.068,65.018 38.104,64.504 C43.622,61.774 49.280,64.830 54.371,67.614 C52.857,67.458 51.332,67.416 49.871,67.427 C49.567,67.429 49.515,67.870 49.829,67.899 C52.166,68.112 54.485,68.368 56.764,68.900 C57.328,69.195 57.881,69.469 58.426,69.720 C54.313,71.594 50.242,72.016 45.661,70.988 ZM74.489,54.965 C74.999,57.545 74.919,60.143 74.327,62.702 C73.734,65.265 72.084,67.072 70.404,68.892 C71.058,66.750 71.378,64.561 71.027,62.498 C70.963,62.124 70.395,62.224 70.444,62.596 C70.799,65.296 70.040,67.995 68.916,70.556 C68.901,70.572 68.888,70.589 68.873,70.606 C69.036,68.101 68.793,65.590 68.941,63.069 C69.161,59.280 70.575,54.560 72.578,51.320 C73.451,49.910 74.455,54.796 74.489,54.965 Z"/>
</svg>