<svg 
 xmlns="http://www.w3.org/2000/svg"
 xmlns:xlink="http://www.w3.org/1999/xlink"
 width="190px" height="200px">
<path fill-rule="evenodd"  fill="rgb(138, 106, 62)"
 d="M75.318,197.440 C76.326,195.694 77.730,194.082 79.426,192.976 C79.610,192.852 79.879,193.073 79.722,193.265 C78.421,194.822 76.833,196.026 75.741,197.764 C75.555,198.059 75.144,197.733 75.318,197.440 ZM189.990,10.662 C189.741,13.043 184.992,13.956 183.260,14.405 C181.109,14.962 178.206,15.971 175.853,15.628 C175.772,15.697 175.668,15.743 175.567,15.740 L175.404,15.741 C175.113,15.760 174.813,15.511 174.856,15.210 C174.403,15.754 173.940,16.284 173.461,16.776 C173.225,17.311 172.985,17.837 172.714,18.339 C172.712,18.452 172.682,18.567 172.577,18.668 C172.510,18.731 172.445,18.798 172.381,18.858 C172.147,19.238 171.942,19.628 171.654,19.988 C171.507,20.177 171.281,20.183 171.104,20.091 C170.744,20.436 170.396,20.790 170.038,21.134 C172.606,20.161 175.319,19.673 177.984,20.255 C179.815,20.656 184.428,23.367 183.057,25.960 C181.748,28.437 177.981,28.596 175.538,28.518 C173.346,28.450 169.923,28.244 168.083,26.612 C167.721,26.631 167.352,26.623 166.989,26.519 C166.550,26.395 166.647,25.864 166.940,25.654 C166.532,25.604 166.131,25.502 165.734,25.358 C162.877,28.161 160.049,30.997 157.260,33.871 C160.525,32.361 164.052,31.198 167.480,31.175 C170.105,31.152 176.668,32.419 176.748,36.174 C176.822,39.743 171.959,40.772 169.141,40.913 C165.312,41.108 160.695,40.597 156.909,39.000 C156.409,39.061 155.901,39.091 155.375,39.055 C154.947,39.030 154.878,38.405 155.258,38.249 C155.273,38.237 155.290,38.233 155.303,38.230 C154.889,37.998 154.474,37.771 154.088,37.507 C154.026,37.464 154.013,37.394 153.970,37.339 C150.842,40.624 147.774,43.967 144.741,47.334 C147.413,45.814 150.274,44.663 153.204,44.166 C157.133,43.500 163.712,43.600 165.476,48.086 C166.762,51.359 161.432,53.794 159.188,54.353 C153.282,55.828 145.891,56.606 139.994,54.455 C139.421,54.580 138.831,54.638 138.237,54.678 C136.485,56.702 134.761,58.742 133.044,60.793 C133.813,60.572 134.560,60.392 135.245,60.258 C140.084,59.320 147.379,58.491 151.738,61.532 C155.958,64.473 151.485,67.883 148.198,68.957 C141.450,71.160 132.478,72.365 125.620,69.965 C125.595,69.956 125.588,69.933 125.564,69.918 C122.403,73.873 119.320,77.887 116.279,81.930 C121.688,78.925 128.288,76.591 134.170,77.129 C137.128,77.401 144.802,80.589 141.808,84.938 C139.082,88.903 131.518,88.644 127.373,88.711 C122.880,88.784 116.565,89.372 111.948,87.843 C108.482,92.589 105.128,97.413 101.823,102.273 C110.034,98.010 125.707,95.722 128.676,101.998 C135.118,115.613 103.518,112.581 96.702,109.903 C93.134,115.344 89.676,120.862 86.306,126.432 C92.499,122.134 99.589,118.933 107.333,120.085 C110.990,120.633 118.314,123.720 115.088,128.770 C112.164,133.353 104.379,133.528 99.621,133.621 C94.886,133.715 88.168,134.235 83.478,132.311 C83.213,132.392 82.946,132.466 82.687,132.551 C76.825,142.539 71.314,152.733 66.095,163.076 C72.408,158.093 81.889,155.285 88.499,153.266 C92.791,151.958 106.184,149.707 107.961,156.165 C109.169,160.579 97.511,164.661 94.928,165.574 C85.462,168.920 73.755,168.338 63.585,168.067 C61.046,173.222 58.569,178.403 56.197,183.637 C51.173,194.736 46.430,206.012 41.952,217.415 C45.400,213.521 51.131,210.395 56.515,208.102 C67.957,198.544 79.042,176.486 96.421,179.088 C97.047,179.186 97.377,179.776 97.183,180.363 C94.718,187.905 89.276,195.756 81.895,199.138 C81.516,199.316 81.267,198.801 81.546,198.543 C84.456,195.835 87.699,193.469 90.041,190.188 C90.699,189.263 97.047,180.065 93.129,180.753 C86.490,181.922 80.897,186.150 75.882,190.453 C70.348,195.198 65.718,202.037 59.935,206.731 C62.373,205.812 64.609,205.085 66.345,204.571 C66.504,204.520 66.663,204.469 66.827,204.423 C71.761,199.665 75.384,192.479 81.528,189.212 C81.796,189.068 82.105,189.458 81.897,189.686 C79.196,192.651 76.231,195.330 73.616,198.391 C71.971,200.317 70.255,202.162 68.450,203.922 C77.251,201.273 85.951,198.460 94.210,194.287 C100.528,191.093 106.137,186.344 113.387,185.700 C114.103,185.634 114.548,186.253 114.352,186.915 C111.470,196.645 103.106,209.270 92.811,214.405 C94.627,214.218 96.498,214.233 98.043,214.075 C103.534,213.518 109.376,211.578 114.650,209.033 C114.322,208.622 114.229,208.064 114.565,207.587 C114.003,207.240 113.793,206.363 114.434,205.907 C116.203,204.651 117.741,204.099 119.778,203.319 C121.119,202.803 122.431,204.506 121.619,205.516 C122.218,205.736 122.293,206.762 121.629,207.112 C115.581,210.296 109.417,213.165 102.713,214.683 C101.860,214.874 100.901,214.987 99.886,215.072 C104.709,214.950 109.548,214.420 114.287,214.020 C116.876,213.799 123.992,212.467 125.463,215.280 C125.653,215.643 125.499,216.157 125.180,216.389 C124.721,216.718 124.291,216.988 123.869,217.220 C123.733,217.347 123.565,217.453 123.359,217.537 C122.287,217.944 120.893,218.947 119.705,218.309 C119.495,218.196 119.342,218.054 119.220,217.902 C118.545,217.936 117.882,217.984 117.186,217.961 C116.517,217.940 116.253,216.956 116.798,216.582 C117.411,216.165 117.965,215.863 118.507,215.610 C116.840,215.597 115.149,215.614 114.536,215.678 C111.763,215.966 108.962,216.436 106.172,216.495 C101.398,216.594 96.479,216.566 91.732,215.802 C91.129,215.918 90.549,216.056 90.001,216.233 C91.783,216.904 93.517,217.684 95.228,218.518 C101.847,220.235 108.513,221.761 115.066,223.710 C117.854,224.544 120.587,225.448 122.816,227.013 C123.167,226.936 123.536,227.000 123.863,227.316 C124.000,227.396 124.067,227.466 124.147,227.535 C125.248,227.066 126.807,228.032 126.157,229.387 C126.040,229.636 125.924,229.885 125.803,230.133 C126.041,230.510 126.274,230.880 126.478,231.300 C126.896,232.193 125.697,233.186 124.929,232.507 C123.285,231.053 123.317,231.089 121.888,229.313 C121.543,228.883 121.547,228.370 121.745,227.933 C118.397,225.501 113.014,224.756 109.663,223.740 C106.447,222.765 103.172,221.984 99.922,221.119 C101.666,222.201 103.365,223.354 104.967,224.663 C109.166,228.097 117.857,234.049 118.808,239.619 C118.879,240.006 118.641,240.422 118.278,240.568 C106.582,245.358 91.047,238.238 79.728,233.494 C89.141,242.177 93.527,254.921 95.729,267.309 C95.839,267.911 95.194,268.385 94.645,268.166 C84.938,264.331 76.725,257.484 70.773,248.886 C64.532,239.863 58.465,224.549 45.687,223.327 C42.996,223.710 40.513,224.676 38.416,226.536 C34.972,235.680 31.722,244.905 28.693,254.210 C30.594,250.782 32.961,247.626 35.570,245.171 C38.635,242.289 46.799,237.699 49.812,243.564 C52.397,248.585 44.844,254.165 41.551,256.627 C37.518,259.650 30.997,265.213 25.628,265.264 C25.611,265.319 25.595,265.370 25.585,265.421 C25.516,265.715 25.269,265.836 25.031,265.838 C14.509,300.457 7.103,336.010 4.016,371.939 C3.878,373.562 1.372,373.272 1.506,371.658 C4.900,330.659 14.088,289.626 27.253,250.081 C22.028,245.124 16.301,239.668 13.015,233.273 C11.198,229.739 8.151,220.516 13.490,218.113 C22.635,213.990 29.027,230.429 30.247,241.273 C31.775,236.916 33.363,232.582 34.979,228.265 C34.993,228.146 35.029,228.022 35.114,227.909 L35.115,227.905 C38.486,218.915 42.028,210.009 45.775,201.230 C38.051,194.364 30.320,186.381 26.266,176.729 C23.854,170.986 20.626,158.774 26.892,153.908 C31.552,150.288 37.523,160.785 39.025,163.851 C44.078,174.175 46.495,185.965 47.397,197.504 C50.112,191.236 52.895,185.014 55.776,178.871 C56.879,176.531 58.016,174.207 59.146,171.884 C59.085,171.838 59.040,171.770 59.033,171.672 C57.934,158.091 47.280,149.607 38.861,140.078 C29.493,129.489 14.853,124.257 0.762,122.837 C-0.064,122.750 -0.174,121.797 0.331,121.293 C7.176,114.452 26.902,111.841 36.318,118.439 C32.201,111.730 26.882,104.827 20.642,100.540 C20.470,100.679 20.284,100.819 20.058,100.959 C17.353,102.600 15.908,100.236 15.553,97.921 C15.406,97.773 15.261,97.653 15.104,97.480 C14.521,96.844 14.986,95.802 15.742,95.572 C16.175,95.005 17.050,94.857 17.682,95.295 C18.547,95.897 19.361,96.517 20.150,97.177 C20.451,97.385 20.717,97.603 20.936,97.836 C20.986,97.884 21.037,97.922 21.084,97.967 C21.335,98.198 21.447,98.464 21.502,98.732 C27.542,104.651 33.142,111.281 37.418,118.619 C36.677,116.938 35.977,115.234 35.363,113.491 C35.214,113.677 34.848,113.666 34.709,113.417 C30.711,106.265 29.599,97.853 25.693,90.590 C25.197,91.268 23.962,91.146 23.806,90.152 C23.478,88.093 22.963,86.373 21.702,84.664 C21.176,83.947 21.442,83.095 22.012,82.630 C21.957,82.201 21.921,81.753 21.912,81.274 C21.881,79.717 24.455,79.378 24.906,80.832 C25.316,82.138 25.578,83.397 25.802,84.752 C25.843,84.963 25.809,85.160 25.753,85.357 C25.972,85.911 26.213,86.459 26.511,86.999 C26.759,87.454 26.182,88.032 25.726,87.801 C25.711,87.794 25.699,87.788 25.680,87.781 C25.697,87.871 25.723,87.962 25.734,88.053 C25.856,88.124 25.965,88.218 26.034,88.343 C29.091,93.622 31.552,99.734 33.419,105.823 C31.859,96.715 31.991,84.709 38.016,79.738 C38.367,79.450 39.043,79.481 39.297,79.900 C43.176,86.304 47.478,92.369 51.041,98.784 C49.685,92.188 48.837,85.348 47.060,78.858 C46.986,78.900 46.918,78.940 46.843,78.971 C46.834,79.106 46.843,79.248 46.840,79.389 C46.802,80.242 45.715,80.193 45.376,79.605 C43.626,76.594 43.202,73.650 43.831,70.239 C44.069,68.947 45.912,68.092 46.775,69.410 C48.573,72.176 48.727,74.644 47.790,77.704 C49.147,85.658 51.734,93.452 52.494,101.528 C52.666,101.864 52.843,102.194 53.022,102.525 C51.656,95.415 52.948,88.224 52.444,81.042 C52.336,80.909 52.269,80.740 52.336,80.530 C52.367,80.543 52.387,80.557 52.413,80.570 C52.407,80.494 52.406,80.415 52.398,80.339 C52.306,80.316 52.235,80.248 52.167,80.176 C51.606,80.024 51.158,79.578 51.331,78.888 C51.426,78.506 51.497,78.211 51.562,77.952 C51.210,75.591 51.593,73.520 52.603,71.043 C53.154,69.686 55.178,69.930 55.407,71.370 C55.899,74.405 55.670,77.074 53.801,79.506 C53.743,79.781 53.650,80.078 53.558,80.366 C53.647,80.949 53.645,81.004 53.522,80.488 C53.471,80.641 53.440,80.789 53.380,80.949 C53.355,81.016 53.298,81.029 53.256,81.076 C53.852,81.610 54.031,82.368 53.751,83.365 C53.768,84.034 53.775,84.703 53.776,85.372 C53.738,87.255 53.659,89.131 53.575,91.014 C53.435,94.062 53.315,97.093 53.509,100.117 C54.240,90.825 58.200,82.155 62.002,73.522 C62.366,72.708 63.513,72.678 63.890,73.502 C69.451,85.685 68.127,98.512 66.277,111.431 C63.675,129.616 60.331,147.659 61.991,166.053 C67.499,155.015 73.327,144.154 79.491,133.514 C79.295,133.527 79.093,133.538 78.896,133.502 C78.609,133.450 78.469,133.196 78.551,132.924 C78.794,132.113 79.470,131.558 80.285,131.142 C76.718,127.519 74.885,121.301 73.784,116.764 C72.785,112.667 70.840,104.924 74.553,101.479 C79.094,97.260 82.990,101.466 84.568,106.256 C86.354,111.685 86.068,118.479 84.732,124.599 C87.985,119.214 91.326,113.882 94.768,108.622 C90.623,105.224 88.283,98.789 87.016,93.854 C85.864,89.374 84.307,81.879 88.353,78.226 C92.719,74.290 95.914,78.957 97.240,83.243 C99.295,89.904 99.049,97.604 97.521,104.533 C101.539,98.518 105.652,92.564 109.928,86.734 C105.726,83.826 103.799,77.561 102.996,72.781 C102.410,69.292 101.656,62.013 105.924,60.191 C109.614,58.617 112.017,63.649 112.859,66.443 C114.270,71.115 114.546,77.132 113.227,82.280 C116.546,77.858 119.939,73.494 123.410,69.199 C118.726,67.330 117.292,58.939 116.614,54.707 C115.965,50.640 114.410,42.157 118.070,38.894 C122.898,34.577 125.939,40.741 127.281,44.962 C129.202,51.016 128.760,57.735 127.007,63.894 C127.577,63.364 128.236,62.902 128.943,62.491 C132.087,58.749 135.277,55.033 138.549,51.391 C138.549,51.391 138.546,51.385 138.544,51.384 C138.426,51.453 138.292,51.489 138.147,51.449 C133.552,50.083 133.088,39.331 133.016,35.759 C132.931,31.731 132.588,23.783 138.158,23.407 C146.255,22.869 144.821,40.269 141.493,48.143 C144.581,44.778 147.701,41.443 150.900,38.171 C146.479,36.293 144.250,16.582 149.696,13.720 C156.852,9.964 154.895,31.451 152.515,36.327 C152.533,36.322 152.552,36.312 152.572,36.302 C152.577,36.294 152.578,36.285 152.588,36.280 C152.730,36.202 152.878,36.121 153.020,36.041 C155.143,33.898 157.279,31.762 159.454,29.663 C159.243,29.519 159.129,29.263 159.273,28.980 C159.324,28.875 159.373,28.781 159.423,28.683 C159.352,28.659 159.276,28.637 159.241,28.546 C158.487,26.881 158.765,24.438 158.624,22.633 C158.449,20.379 158.216,18.075 158.390,15.813 C158.590,13.234 159.764,7.440 163.521,7.685 C167.008,7.910 166.606,13.129 166.295,15.524 C165.958,18.184 165.397,21.350 164.253,24.149 C164.281,24.115 164.315,24.083 164.360,24.054 C165.253,23.485 166.203,22.924 167.184,22.412 C167.793,21.845 168.388,21.272 169.002,20.717 C168.689,20.486 168.507,20.099 168.703,19.639 C168.854,19.293 169.001,18.930 169.147,18.572 C169.748,12.553 173.732,-5.143 180.686,1.490 C183.114,3.807 179.686,8.611 178.315,10.531 C177.757,11.314 177.104,12.260 176.387,13.226 C177.125,12.562 177.954,11.980 178.687,11.480 C180.454,10.273 182.377,9.059 184.435,8.434 C186.207,7.894 190.299,7.666 189.990,10.662 ZM33.269,256.490 C33.205,256.613 33.124,256.726 33.056,256.841 C33.332,256.984 33.499,257.293 33.229,257.594 C31.581,259.440 29.776,261.110 27.970,262.785 C31.267,261.105 34.514,259.390 37.594,257.283 C41.244,254.783 47.453,251.057 48.679,246.461 C49.868,241.999 43.275,241.672 40.660,243.074 C37.681,244.674 35.261,247.128 33.292,249.853 C32.075,251.532 30.909,253.317 29.851,255.175 C30.824,253.916 31.849,252.701 33.007,251.660 C33.346,251.356 33.906,251.788 33.715,252.195 C32.801,254.152 31.204,255.740 29.905,257.444 C29.219,258.347 28.275,259.432 27.574,260.583 C29.151,258.894 30.810,257.256 32.573,255.967 C32.905,255.720 33.495,256.072 33.269,256.490 ZM24.242,227.836 C23.235,225.448 22.262,223.126 20.209,221.422 C17.456,219.136 12.785,217.778 12.264,223.158 C11.447,231.569 17.545,237.695 23.230,243.567 C22.743,242.248 22.369,240.866 21.864,239.553 C21.611,238.892 22.585,238.472 22.877,239.124 C23.155,239.743 23.403,240.376 23.651,241.011 C24.012,240.776 24.537,240.800 24.703,241.310 C25.241,242.976 25.926,244.591 26.385,246.283 C26.445,246.501 26.395,246.674 26.293,246.813 C26.806,247.383 27.307,247.949 27.780,248.525 C28.064,247.686 28.342,246.848 28.623,246.012 C27.500,239.821 26.785,233.885 24.242,227.836 ZM70.123,244.570 C73.686,249.693 77.564,255.134 82.492,259.045 C85.975,261.807 95.409,270.031 92.794,260.428 C89.777,249.378 84.956,240.711 76.871,232.607 C76.768,232.503 76.743,232.376 76.745,232.258 C73.192,230.786 68.778,228.671 64.118,226.846 C66.474,228.633 68.537,230.850 70.312,233.268 C74.581,239.086 79.257,245.720 82.038,252.389 C82.171,252.704 81.761,253.087 81.484,252.821 C77.095,248.676 74.777,242.550 71.405,237.595 C67.618,232.031 63.507,227.868 57.827,224.678 C55.805,224.095 53.783,223.617 51.812,223.358 C60.183,226.496 65.737,238.258 70.123,244.570 ZM89.993,230.213 C80.227,227.248 71.321,221.832 60.919,221.089 C56.423,220.770 50.441,220.285 45.491,221.651 C57.577,219.795 73.709,229.276 83.202,232.973 C91.836,236.340 103.385,242.259 112.921,240.436 C121.648,238.767 93.324,219.571 90.714,218.571 C89.695,218.180 88.628,217.812 87.538,217.462 C87.488,217.500 87.422,217.525 87.373,217.562 C87.121,217.775 86.822,217.524 86.849,217.252 C86.252,217.065 85.660,216.873 85.044,216.706 C84.944,216.710 84.850,216.738 84.748,216.741 C84.570,216.755 84.439,216.648 84.349,216.524 C71.071,212.954 54.460,212.776 43.532,221.092 C47.210,219.736 51.799,219.582 54.926,219.546 C67.632,219.403 79.063,223.821 90.182,229.746 C90.468,229.897 90.311,230.311 89.993,230.213 ZM39.787,223.191 C40.947,221.826 42.309,220.615 43.799,219.520 C48.288,213.955 56.324,213.190 62.900,211.803 C75.368,209.172 86.614,205.387 97.156,198.133 C97.378,197.987 97.699,198.255 97.503,198.474 C91.514,205.157 82.794,208.150 74.314,210.419 C71.492,211.174 68.516,211.758 65.513,212.348 C69.349,212.050 73.070,212.165 76.320,212.657 C79.804,213.181 83.255,213.984 86.622,215.038 C95.259,211.457 102.304,205.411 107.331,197.364 C110.219,192.743 115.126,184.511 105.580,189.719 C101.998,191.672 98.538,194.014 94.787,195.635 C84.478,200.090 74.188,202.995 63.692,206.697 C56.119,209.366 43.166,214.784 39.787,223.191 ZM45.427,197.679 C45.434,197.724 45.438,197.767 45.441,197.811 C45.489,198.283 44.862,198.468 44.654,198.036 C42.504,193.592 42.117,187.133 38.249,183.660 C38.220,185.015 38.496,186.331 38.984,187.600 C40.524,190.471 42.248,193.245 43.707,196.155 C44.067,196.871 42.912,197.570 42.483,196.876 C40.507,193.668 37.668,189.899 36.844,185.957 C36.492,185.233 36.128,184.517 35.830,183.763 C35.595,183.169 36.288,182.791 36.704,183.076 C36.730,182.723 36.720,182.365 36.794,182.004 C36.926,181.388 37.531,181.126 38.070,181.463 C41.556,183.636 43.580,188.443 44.632,192.940 C43.855,187.418 43.447,181.813 42.035,176.418 C40.860,171.937 39.381,167.423 37.033,163.393 C36.063,161.742 28.927,149.795 26.282,157.378 C20.550,173.838 34.611,189.750 46.025,200.316 C45.798,199.446 45.607,198.565 45.427,197.679 ZM2.729,121.332 C5.297,118.774 27.695,127.814 30.564,129.941 C36.859,134.608 43.028,141.183 48.213,147.685 C45.577,143.140 43.184,138.575 40.255,134.205 C40.065,133.916 40.412,133.508 40.703,133.755 C44.494,136.945 46.119,141.711 48.506,145.912 C51.257,150.744 54.840,154.883 57.074,159.992 C55.049,154.841 52.199,149.607 50.825,146.065 C47.844,138.373 43.643,131.356 39.980,124.068 C39.822,124.168 39.588,124.159 39.471,123.943 C39.234,123.494 38.984,123.038 38.728,122.581 C30.073,116.390 11.087,113.021 2.729,121.332 ZM39.315,83.423 C37.970,81.206 35.403,94.328 35.374,94.830 C35.218,97.766 34.946,100.856 35.295,103.782 C36.373,112.848 40.395,120.705 44.628,128.589 C48.730,136.223 51.462,144.360 54.837,152.317 C55.965,154.982 57.845,158.567 59.160,162.208 C58.122,153.137 54.901,144.493 52.398,135.708 C49.811,126.627 47.513,117.504 44.420,108.575 C44.318,108.273 44.718,108.100 44.868,108.378 C49.906,117.597 51.630,128.239 54.364,138.283 C56.005,144.298 57.976,150.209 59.174,156.272 C58.607,150.125 57.938,143.989 57.598,137.815 C57.053,127.907 57.396,117.562 53.657,108.147 C50.033,99.013 44.348,91.703 39.315,83.423 ZM64.859,107.743 C65.347,103.085 65.906,98.328 65.822,93.634 C65.829,93.910 63.950,73.969 62.205,77.847 C58.006,87.217 55.566,96.150 54.748,106.318 C56.281,110.056 57.442,113.987 58.003,118.244 C59.250,127.676 60.050,137.391 60.593,147.112 C61.302,133.964 63.484,120.864 64.859,107.743 ZM80.070,162.891 C78.197,163.929 76.185,164.839 74.124,165.560 C78.070,165.688 82.035,165.979 85.812,165.637 C91.761,165.091 97.776,163.446 102.817,160.095 C103.822,159.425 108.792,156.306 104.729,154.843 C102.684,154.108 100.511,153.521 98.324,153.499 C93.161,153.454 88.250,154.664 83.486,156.626 C77.845,158.948 70.988,161.205 65.925,165.147 C70.367,163.423 74.881,161.962 79.663,161.452 C80.550,161.361 80.807,162.487 80.070,162.891 ZM83.966,110.490 C83.590,108.049 82.883,105.230 81.350,103.220 C78.087,98.934 74.500,102.831 74.207,106.295 C73.599,113.564 76.231,124.350 81.294,130.386 C81.452,130.117 81.608,129.850 81.768,129.581 C82.379,123.270 84.950,116.857 83.966,110.490 ZM84.718,129.078 C87.108,128.985 89.352,127.645 91.614,126.933 C92.564,126.635 93.248,127.737 92.491,128.425 C92.381,128.532 92.248,128.609 92.132,128.706 C94.661,128.348 97.200,128.148 99.664,128.211 C100.014,128.222 100.096,128.780 99.761,128.895 C95.985,130.192 91.888,130.336 87.900,130.952 C87.622,131.049 87.342,131.150 87.061,131.237 C94.137,132.046 101.305,132.958 108.315,131.110 C110.241,130.600 114.035,129.585 114.160,127.019 C114.404,122.086 108.063,121.324 104.443,121.342 C96.979,121.387 90.750,124.491 84.914,128.744 C84.846,128.857 84.783,128.969 84.718,129.078 ZM96.542,87.161 C96.162,85.028 95.620,82.769 94.555,80.858 C92.054,76.377 87.829,80.193 87.467,83.754 C86.759,90.675 89.252,98.261 93.024,104.405 C92.639,102.383 92.542,100.310 92.142,98.295 C92.037,97.746 92.843,97.658 92.984,98.170 C93.305,99.379 93.547,100.597 93.785,101.827 C94.771,102.847 94.827,105.246 94.817,106.299 C94.817,106.502 94.709,106.636 94.571,106.736 C94.822,107.086 95.061,107.461 95.321,107.798 C95.411,107.665 95.505,107.534 95.590,107.397 C95.612,106.894 95.651,106.389 95.691,105.884 C94.487,101.247 93.431,96.377 93.113,91.692 C93.068,91.047 94.050,90.887 94.108,91.540 C94.399,94.814 95.380,98.048 96.144,101.296 C96.715,96.606 97.389,91.950 96.542,87.161 ZM98.460,107.287 C99.440,106.963 100.476,106.866 101.522,106.660 C103.807,106.206 106.082,105.700 108.426,105.987 C109.109,106.074 109.401,106.987 108.825,107.418 C107.201,108.636 104.896,109.312 102.653,109.419 C112.409,110.875 129.116,112.410 127.800,104.553 C126.316,95.699 107.205,100.151 100.159,104.749 C99.590,105.596 99.025,106.440 98.460,107.287 ZM111.825,68.966 C111.258,66.137 106.896,57.114 104.716,64.498 C103.160,69.778 104.875,77.078 107.970,82.395 C107.769,81.843 107.626,81.258 107.555,80.641 C107.498,80.139 108.045,79.692 108.491,79.802 C108.500,79.759 108.494,79.708 108.505,79.668 C108.617,79.245 109.217,79.395 109.286,79.758 C109.408,80.381 109.507,81.002 109.607,81.628 C110.016,82.658 110.236,83.726 110.146,84.915 C110.131,85.075 110.049,85.180 109.960,85.278 C110.136,85.494 110.308,85.712 110.490,85.911 C111.313,80.116 113.030,74.994 111.825,68.966 ZM114.182,84.753 C114.524,84.719 114.861,84.657 115.125,84.617 C115.945,84.490 116.756,84.310 117.524,83.994 C118.106,83.753 118.770,84.344 118.505,84.951 C118.207,85.633 117.723,86.201 117.147,86.626 C123.320,86.994 129.486,87.791 135.677,86.440 C137.291,86.090 141.824,85.121 140.621,82.469 C138.909,78.693 134.490,78.210 130.817,78.698 C125.331,79.427 119.578,81.199 114.714,84.011 C114.536,84.258 114.360,84.505 114.182,84.753 ZM126.264,48.234 C125.816,46.054 125.277,43.758 124.202,41.780 C122.202,38.104 118.742,38.995 118.071,42.967 C116.979,49.468 117.842,60.466 122.322,66.461 C122.261,66.100 122.193,65.746 122.139,65.390 C121.965,64.727 121.805,64.060 121.612,63.400 C121.534,63.136 121.616,62.870 121.771,62.673 C121.609,61.391 121.444,60.114 121.215,58.840 C121.079,58.096 122.202,57.950 122.363,58.669 C122.724,60.281 123.016,61.908 123.333,63.535 C123.663,64.184 123.905,64.861 124.066,65.561 C124.211,65.546 124.383,65.667 124.306,65.839 C124.244,65.976 124.206,66.053 124.167,66.121 C124.196,66.280 124.237,66.435 124.253,66.593 C125.530,60.482 127.588,54.612 126.264,48.234 ZM126.591,69.221 C126.844,69.207 127.093,69.203 127.346,69.194 C128.749,68.630 130.451,68.333 131.768,67.552 C131.105,67.663 130.443,67.815 129.800,67.993 C129.107,68.180 128.408,68.395 127.745,68.656 C127.448,68.773 126.826,68.931 126.591,69.221 ZM127.317,67.758 C127.814,67.465 128.367,67.246 128.895,67.066 C130.400,66.560 131.954,66.136 133.548,66.051 C134.137,66.026 134.480,66.589 134.164,67.096 C133.582,68.015 132.657,68.686 131.605,69.169 C135.560,69.222 139.503,69.330 143.451,68.458 C145.901,67.919 149.071,67.365 150.982,65.562 C153.447,63.233 148.792,61.943 147.075,61.637 C142.543,60.845 136.025,60.779 131.222,62.978 C129.907,64.561 128.611,66.158 127.317,67.758 ZM141.856,38.401 C142.210,35.346 143.527,25.966 139.175,24.802 C132.400,22.983 133.552,43.035 137.396,49.128 C137.202,48.235 137.228,47.284 137.338,46.327 C137.334,46.106 137.319,45.883 137.317,45.660 C137.298,44.822 137.187,43.782 137.531,42.987 C137.707,42.591 138.281,42.685 138.354,43.061 C138.595,43.024 138.848,43.117 138.943,43.407 C139.476,45.052 139.642,46.736 139.343,48.388 C140.624,45.195 141.449,41.837 141.856,38.401 ZM140.454,52.153 C141.968,51.836 143.336,51.167 144.757,50.530 C145.293,50.293 145.934,51.005 145.493,51.466 C144.679,52.330 143.714,52.964 142.690,53.480 C146.545,53.908 150.348,54.170 154.268,53.605 C156.323,53.305 158.553,53.042 160.447,52.153 C163.049,50.928 165.391,47.922 161.305,46.336 C154.732,43.768 147.298,46.801 141.546,50.920 C141.181,51.331 140.818,51.741 140.454,52.153 ZM153.209,24.693 C153.250,23.702 153.443,13.331 150.648,14.836 C146.871,16.870 147.959,23.516 148.426,26.978 C148.565,28.044 148.960,31.900 149.849,34.622 C149.768,33.902 149.780,33.161 149.763,32.437 C149.757,32.123 149.752,31.805 149.742,31.488 C149.602,30.409 149.594,29.322 149.789,28.211 C149.892,27.615 150.657,27.633 150.801,28.189 C151.176,29.665 151.105,31.238 151.204,32.749 C151.251,33.478 151.343,34.219 151.364,34.957 C152.833,31.915 153.086,27.908 153.209,24.693 ZM160.314,36.221 C161.181,36.325 161.227,37.414 160.546,37.788 C160.528,37.799 160.503,37.809 160.484,37.817 C162.214,38.321 163.958,38.773 165.790,38.877 C167.777,39.001 178.256,38.316 173.118,34.521 C168.104,30.815 161.712,33.575 156.177,35.719 C157.604,35.792 159.047,36.076 160.314,36.221 ZM164.602,11.431 C163.947,7.356 160.673,11.510 160.350,13.385 C159.781,16.679 160.151,19.971 160.357,23.281 C160.360,23.300 160.359,23.322 160.363,23.341 C160.507,22.560 160.651,21.787 160.752,21.055 C160.827,20.529 161.603,20.623 161.570,21.148 C161.476,22.351 161.452,23.668 161.314,24.952 C162.648,22.271 163.781,19.593 164.246,16.388 C164.481,14.774 164.860,13.073 164.602,11.431 ZM164.180,24.329 C163.951,24.875 163.707,25.410 163.429,25.919 C163.826,25.548 164.220,25.180 164.614,24.810 C164.365,24.777 164.160,24.549 164.180,24.329 ZM167.141,23.952 C166.983,24.106 166.829,24.270 166.669,24.425 C168.151,24.466 169.784,23.885 171.189,23.733 C171.915,23.652 172.531,24.709 171.798,25.151 C171.433,25.371 171.040,25.598 170.640,25.811 C171.751,26.166 172.870,26.476 174.071,26.583 C176.039,26.761 179.192,27.051 180.906,25.773 C182.053,24.900 180.763,23.743 179.934,23.120 C178.320,21.917 176.438,21.415 174.433,21.689 C171.867,22.045 169.521,23.024 167.141,23.952 ZM180.039,3.174 C179.277,-0.362 175.012,2.942 174.208,4.663 C173.254,6.677 172.600,8.791 172.086,10.959 C171.973,11.433 171.893,11.949 171.803,12.449 C172.213,11.641 172.652,10.854 173.138,10.108 C173.350,9.778 173.930,10.010 173.853,10.392 C173.564,11.949 173.076,13.490 172.526,15.014 C173.289,14.213 174.037,13.404 174.755,12.558 C176.499,10.484 180.691,6.210 180.039,3.174 ZM187.215,9.277 C185.688,9.209 184.144,9.894 182.803,10.565 C181.502,11.212 180.294,11.981 179.125,12.807 C180.092,12.435 181.049,12.032 182.009,11.649 C182.219,11.568 182.459,11.775 182.364,11.995 C182.016,12.789 181.244,13.285 180.452,13.678 C183.201,13.274 185.997,12.932 188.159,11.184 C189.156,10.384 188.420,9.332 187.215,9.277 ZM80.958,128.330 C80.937,128.732 80.444,128.776 80.217,128.542 C80.074,128.395 79.962,128.233 79.863,128.055 C79.700,127.949 79.563,127.808 79.510,127.621 C78.788,124.978 78.610,122.122 78.678,119.396 C78.697,118.610 79.869,118.767 79.874,119.527 C79.876,120.655 79.983,121.761 80.130,122.855 C80.385,122.765 80.678,122.827 80.799,123.152 C81.369,124.734 81.410,126.059 80.906,127.644 C80.932,127.872 80.969,128.094 80.958,128.330 ZM60.534,102.441 C60.540,102.134 61.029,102.132 61.066,102.428 C62.069,110.701 61.838,119.524 61.142,127.809 C61.119,128.063 60.698,128.081 60.682,127.817 C60.219,119.442 60.311,110.825 60.534,102.441 ZM49.289,115.397 C47.458,110.927 46.050,106.262 44.436,101.715 C44.237,101.147 45.067,100.779 45.294,101.339 C47.097,105.844 49.119,110.409 49.951,115.210 C50.020,115.599 49.436,115.765 49.289,115.397 ZM35.669,127.538 C33.601,125.811 31.293,124.227 29.368,122.341 C28.959,121.941 29.504,121.214 29.918,121.622 C31.842,123.506 34.842,124.745 36.054,127.234 C36.162,127.462 35.864,127.695 35.669,127.538 ZM30.492,175.768 C30.982,177.007 31.449,178.237 31.905,179.484 C32.278,180.493 32.872,181.507 32.995,182.584 C33.035,182.929 32.605,183.257 32.308,182.990 C31.359,182.143 31.008,180.767 30.655,179.586 C30.292,178.393 30.067,177.180 29.770,175.972 C29.664,175.549 30.335,175.377 30.492,175.768 ZM94.371,203.944 C89.844,208.913 83.255,212.016 76.488,212.190 C76.306,212.197 76.262,211.944 76.445,211.914 C82.717,210.807 89.526,208.429 93.958,203.628 C94.184,203.387 94.600,203.694 94.371,203.944 ZM88.172,225.974 C82.334,224.370 76.676,222.150 70.807,220.605 C70.538,220.534 70.657,220.078 70.922,220.133 C76.809,221.410 82.979,222.692 88.364,225.490 C88.666,225.647 88.496,226.062 88.172,225.974 ZM78.763,243.057 C78.542,242.536 79.347,242.189 79.572,242.709 C80.812,245.586 82.535,248.408 83.317,251.450 C83.377,251.676 83.022,251.830 82.895,251.630 C81.215,248.980 80.009,245.932 78.763,243.057 ZM17.913,107.292 C22.790,109.461 28.046,111.658 31.816,115.179 C32.048,115.393 31.847,115.866 31.519,115.705 C30.867,115.382 30.283,114.942 29.672,114.558 C29.529,114.466 29.557,114.325 29.654,114.233 C29.398,114.096 29.165,113.962 28.999,113.862 C26.870,112.553 24.671,111.509 22.368,110.556 C20.797,109.906 19.216,109.055 17.626,108.277 C17.369,108.615 16.974,108.864 16.418,108.875 C14.722,108.895 13.222,108.705 11.632,108.272 C11.604,108.268 11.584,108.270 11.560,108.266 C11.563,108.262 11.563,108.258 11.564,108.256 C11.435,108.221 11.308,108.213 11.175,108.173 C9.562,107.688 10.279,105.167 11.886,105.356 C12.008,105.370 12.111,105.396 12.228,105.411 C12.424,105.320 12.644,105.267 12.915,105.310 C14.235,105.520 15.397,105.829 16.732,106.078 C17.503,106.222 17.866,106.739 17.913,107.292 Z"/>
</svg>