<svg 
 xmlns="http://www.w3.org/2000/svg"
 xmlns:xlink="http://www.w3.org/1999/xlink"
 width="72px" height="134px">
<path fill-rule="evenodd"  fill="rgb(66, 66, 66)"
 d="M48.303,98.681 C48.338,98.522 48.250,98.370 48.121,98.279 C48.142,98.005 47.977,97.750 47.685,97.696 C46.542,97.481 45.314,97.522 44.049,97.731 C43.942,97.608 43.794,97.517 43.593,97.518 C38.757,97.566 32.141,102.309 28.982,107.104 C28.978,107.109 28.971,107.117 28.964,107.125 C25.763,108.940 22.705,111.112 20.519,113.977 C21.918,110.567 23.302,107.148 24.677,103.728 C24.673,103.979 25.092,104.096 25.188,103.828 C26.981,98.780 31.031,95.067 35.299,91.741 C35.382,91.810 35.475,91.868 35.578,91.885 C40.073,92.555 45.607,88.300 49.012,85.889 C51.458,84.159 58.630,79.224 57.340,75.338 C56.988,74.269 56.241,73.833 55.245,73.844 C55.239,73.788 55.245,73.731 55.237,73.675 C55.196,73.340 54.881,73.163 54.567,73.256 C51.845,74.058 41.753,80.457 39.580,85.162 C37.571,86.694 35.973,88.597 35.279,90.702 C31.527,93.622 27.873,96.964 25.797,100.949 C26.945,98.106 28.106,95.271 29.284,92.443 C29.414,92.468 29.565,92.408 29.608,92.243 C30.392,89.177 32.639,86.673 34.734,84.392 C35.674,83.368 36.669,82.387 37.662,81.413 C37.752,81.325 37.842,81.210 37.933,81.089 C37.962,81.329 38.018,81.575 38.122,81.825 C38.201,82.016 38.430,82.155 38.636,82.063 C40.312,81.309 41.708,79.489 40.588,77.715 C40.487,77.555 40.256,77.486 40.078,77.557 C38.999,78.001 37.929,79.050 37.891,80.287 C35.803,82.251 33.465,84.375 31.689,86.782 C32.717,84.413 33.756,82.056 34.842,79.714 C37.146,76.503 39.790,73.456 42.634,70.546 C42.775,70.666 42.975,70.705 43.179,70.562 C45.684,68.824 48.127,66.990 50.529,65.097 C51.604,64.384 52.690,63.682 53.764,62.973 C58.803,59.638 63.031,55.262 67.661,51.408 C68.087,51.054 67.627,50.361 67.166,50.696 C66.754,51.000 66.349,51.313 65.939,51.621 C66.666,50.605 67.201,49.552 67.416,48.477 C68.177,44.715 60.488,49.500 60.088,49.792 C53.950,54.319 47.728,61.136 43.987,67.818 C41.146,70.621 38.523,73.559 36.312,76.590 C36.576,76.040 36.821,75.483 37.090,74.935 C40.054,68.899 43.157,62.861 46.068,56.746 C48.331,54.114 50.750,51.647 53.068,49.105 C53.876,48.502 54.656,47.873 55.412,47.224 C55.273,47.380 55.159,47.550 55.039,47.715 C53.860,48.881 52.659,50.023 51.456,51.147 C51.034,51.541 51.697,52.274 52.132,51.894 C52.808,51.301 53.459,50.687 54.092,50.065 C56.431,47.876 58.603,45.539 60.711,43.129 C62.011,41.646 63.521,39.839 64.923,37.863 C67.381,35.432 69.754,32.965 71.348,29.813 C71.568,29.377 70.991,29.093 70.682,29.389 C69.888,30.144 69.128,30.924 68.382,31.713 C69.270,29.473 69.712,27.200 69.327,25.046 C69.273,24.741 68.994,24.525 68.680,24.640 C65.115,25.938 63.345,29.369 61.567,32.521 C58.948,37.160 55.416,41.464 53.849,46.597 C53.848,46.599 53.851,46.600 53.850,46.603 C53.289,47.277 52.732,47.954 52.205,48.657 C52.050,48.864 52.104,49.116 52.249,49.267 C50.475,51.211 48.622,53.097 46.870,55.059 C48.775,51.003 50.574,46.906 52.190,42.749 C52.238,42.909 52.500,42.969 52.570,42.780 C52.981,41.684 53.296,40.475 53.510,39.217 C54.787,35.651 55.914,32.039 56.819,28.358 C56.979,28.536 57.328,28.379 57.251,28.092 C57.184,27.841 57.128,27.585 57.061,27.334 C57.105,27.139 57.156,26.945 57.201,26.749 C57.338,26.729 57.468,26.671 57.540,26.533 C61.331,19.103 64.177,9.323 61.076,1.248 C60.970,0.976 60.625,0.923 60.429,1.137 C60.013,1.592 59.663,2.080 59.346,2.579 C58.951,1.819 58.490,1.105 57.917,0.476 C57.800,0.347 57.592,0.405 57.487,0.513 C50.995,7.201 53.997,19.042 56.409,27.141 C55.653,29.958 54.777,32.731 53.825,35.472 C53.824,33.362 53.492,31.281 52.816,29.440 C52.885,29.247 52.934,29.045 52.949,28.871 C53.044,27.909 52.483,26.728 51.339,27.071 C51.098,27.143 50.890,27.270 50.710,27.421 C50.577,27.382 50.414,27.429 50.407,27.589 C50.404,27.635 50.416,27.685 50.416,27.731 C49.986,28.305 49.873,29.112 50.237,29.773 C50.321,29.930 50.581,29.858 50.601,29.691 C50.628,29.469 50.653,29.243 50.691,29.021 C50.860,29.428 51.094,29.802 51.389,30.072 C51.768,30.416 52.088,30.379 52.341,30.177 C53.079,32.568 53.217,35.226 52.991,37.818 C51.200,42.705 49.154,47.499 46.967,52.240 C47.391,44.296 52.273,33.660 46.150,26.916 C46.094,26.852 46.026,26.819 45.953,26.805 C45.579,26.323 45.165,25.858 44.674,25.428 C44.474,25.252 44.215,25.355 44.088,25.560 C41.750,29.340 42.269,33.757 42.943,37.945 C43.696,42.634 47.247,50.190 45.355,54.662 C45.254,54.898 45.509,55.065 45.686,54.983 C43.813,58.939 41.860,62.872 39.900,66.803 C40.130,65.833 40.335,64.858 40.497,63.882 C40.840,61.844 41.195,59.141 40.383,57.062 C41.213,55.970 40.608,53.643 39.196,53.430 C38.910,53.387 38.663,53.447 38.437,53.545 C38.403,53.542 38.366,53.537 38.331,53.553 C37.091,54.100 36.727,55.928 37.589,56.943 C38.126,57.571 39.065,57.858 39.802,57.528 C40.960,60.620 40.036,65.164 38.866,68.882 C37.937,70.744 37.010,72.606 36.090,74.474 C30.904,85.013 26.493,95.822 22.158,106.675 C22.267,105.168 22.232,103.639 22.116,102.100 C22.205,102.064 22.283,101.989 22.267,101.859 C22.192,101.175 22.163,100.494 22.153,99.817 C22.274,99.793 22.393,99.691 22.393,99.544 C22.412,97.789 23.166,96.142 23.954,94.604 C24.310,93.905 24.714,93.236 25.167,92.597 C25.175,92.679 25.163,92.756 25.178,92.843 C25.208,93.052 25.423,93.222 25.635,93.132 C26.711,92.668 27.972,91.372 26.832,90.276 C26.480,89.940 25.918,89.901 25.503,90.138 C24.870,90.501 24.613,91.299 24.711,91.993 C24.183,92.685 23.733,93.603 23.530,93.958 C23.171,94.587 22.729,95.395 22.375,96.252 C23.024,91.437 24.965,86.759 27.000,82.347 C27.076,82.349 27.147,82.356 27.233,82.349 C28.537,82.241 29.433,80.561 29.460,79.407 C29.475,78.730 29.065,78.193 28.512,77.862 C27.487,77.252 26.724,78.280 26.116,78.949 C25.653,79.462 25.278,80.452 25.861,81.005 C25.886,81.029 25.915,81.036 25.943,81.055 C25.919,81.504 26.014,81.902 26.307,82.135 C24.097,86.949 21.870,92.107 21.537,97.396 C21.144,94.936 20.657,92.487 20.264,90.108 C20.395,90.095 20.517,89.986 20.460,89.824 C20.341,89.488 20.201,89.160 20.068,88.830 C19.994,88.319 19.912,87.811 19.851,87.309 C19.626,85.448 19.576,83.587 19.607,81.725 C19.613,81.710 19.626,81.709 19.630,81.694 C20.339,79.374 21.274,77.164 22.310,75.000 C22.407,74.962 22.493,74.903 22.542,74.801 C24.631,70.535 27.234,66.505 28.921,62.057 C28.947,61.985 28.933,61.926 28.902,61.882 C29.724,59.982 30.447,58.036 30.975,56.002 C31.045,55.737 30.754,55.530 30.514,55.592 C30.563,54.991 30.585,54.391 30.553,53.797 C30.539,53.533 30.264,53.407 30.033,53.473 C22.970,55.496 21.767,68.309 21.728,74.392 C20.942,76.059 20.247,77.759 19.682,79.525 C20.003,73.565 21.085,67.600 21.093,61.630 C21.112,61.604 21.134,61.589 21.147,61.560 C24.246,55.460 27.680,45.476 24.705,38.854 C24.579,38.574 24.171,38.443 23.957,38.726 C23.576,39.232 23.241,39.755 22.925,40.285 C22.831,39.798 22.721,39.312 22.582,38.831 C22.494,38.522 22.037,38.451 21.844,38.703 C18.252,43.383 16.285,53.246 19.578,58.910 C19.557,59.591 19.537,60.268 19.502,60.939 C19.478,61.419 20.040,61.620 20.303,61.353 C20.288,61.528 20.388,61.667 20.530,61.742 C20.328,68.350 19.416,74.905 19.107,81.515 C19.098,81.546 19.089,81.576 19.082,81.605 C19.071,81.648 19.092,81.674 19.099,81.707 C19.077,82.193 19.049,82.678 19.035,83.163 C19.027,83.453 19.046,83.737 19.044,84.024 C18.985,83.796 18.931,83.535 18.877,83.297 C18.890,78.390 18.800,73.507 19.482,68.581 C19.515,68.345 19.162,68.285 19.117,68.522 C18.440,72.090 18.102,75.778 18.027,79.467 C17.992,79.305 17.961,79.153 17.926,78.991 C17.928,78.973 17.937,78.958 17.933,78.939 C17.874,78.684 17.809,78.430 17.749,78.175 C16.173,70.965 13.939,62.694 7.531,60.290 C7.272,60.194 7.010,60.324 6.948,60.600 C6.842,61.077 6.801,61.541 6.790,62.000 C6.715,61.952 6.646,61.894 6.569,61.850 C6.344,61.709 6.108,61.957 6.111,62.175 C6.246,69.942 11.852,76.443 16.227,83.056 C16.636,83.775 17.056,84.490 17.495,85.195 C17.539,85.274 17.602,85.314 17.667,85.338 C17.856,85.651 18.009,85.970 18.187,86.286 C18.238,87.006 18.292,87.725 18.359,88.440 C18.382,88.673 18.774,88.701 18.784,88.453 C18.797,88.106 18.803,87.760 18.812,87.415 C18.927,87.632 19.063,87.849 19.170,88.069 C19.281,89.641 19.455,91.200 19.642,92.757 C18.513,90.900 16.917,89.348 15.002,88.317 C15.032,88.202 15.061,88.082 15.064,87.964 C15.083,87.129 14.334,86.438 13.514,86.442 C12.458,86.446 11.872,87.575 12.241,88.494 C12.303,88.643 12.513,88.661 12.583,88.509 C12.772,88.100 12.903,87.307 13.438,87.220 C13.842,87.153 14.255,87.483 14.313,87.877 C14.319,87.907 14.310,87.939 14.307,87.974 C14.106,87.881 13.908,87.788 13.701,87.706 C13.306,87.555 13.024,88.152 13.421,88.306 C13.647,88.394 13.843,88.502 14.054,88.600 C13.712,89.017 13.116,89.330 12.717,89.311 C11.713,89.261 11.775,87.599 11.949,86.954 C12.023,86.682 11.562,86.540 11.476,86.810 C11.164,87.802 11.107,89.740 12.481,89.993 C13.268,90.137 14.217,89.634 14.716,88.916 C17.340,90.347 18.835,92.609 19.951,95.273 C20.222,97.405 20.500,99.531 20.687,101.674 C18.436,100.101 16.250,98.567 14.130,96.954 C13.838,96.435 13.550,95.910 13.248,95.399 C11.420,91.940 9.647,88.465 7.434,85.230 C6.409,83.734 3.010,81.022 1.460,81.565 C1.323,81.490 1.179,81.397 1.051,81.340 C0.813,81.241 0.569,81.381 0.514,81.627 C0.307,82.520 0.455,83.427 0.809,84.317 C0.822,84.375 0.820,84.421 0.834,84.480 C2.224,91.305 8.036,95.024 13.627,98.125 C13.784,98.403 13.935,98.685 14.096,98.959 C14.336,99.360 14.794,99.185 14.943,98.852 C15.251,99.020 15.559,99.186 15.861,99.353 C17.411,100.395 19.023,101.362 20.726,102.223 C20.935,104.839 21.005,107.480 20.757,110.178 C17.730,117.775 14.707,125.379 11.450,132.907 C11.274,133.317 11.884,133.599 12.080,133.194 C14.636,127.896 16.979,122.505 19.238,117.079 C19.255,117.061 19.279,117.059 19.293,117.034 C21.151,113.609 23.993,111.538 27.024,109.673 C26.651,110.244 26.311,110.809 26.046,111.355 C25.921,111.617 26.087,112.036 26.410,112.048 C29.220,112.158 32.067,111.036 34.710,109.700 C36.985,108.817 39.293,107.530 41.366,106.022 C44.365,104.202 47.602,101.750 48.303,98.681 ZM55.150,75.208 C56.195,75.627 56.170,77.296 55.052,78.882 C53.626,80.908 51.694,82.642 49.609,84.181 C49.954,83.503 50.210,82.773 50.319,81.977 C50.332,81.878 50.322,81.788 50.295,81.707 C52.276,80.002 54.621,77.686 55.150,75.208 ZM47.325,79.423 C49.075,77.983 50.938,76.646 52.949,75.596 C53.316,75.407 53.648,75.277 53.947,75.199 C53.622,75.896 53.299,76.774 53.164,76.985 C52.493,78.033 51.595,78.944 50.735,79.838 C50.228,80.367 49.699,80.868 49.149,81.356 C47.169,81.485 44.925,82.133 42.807,83.173 C44.349,81.785 45.992,80.521 47.325,79.423 ZM41.223,85.636 C41.978,85.105 45.671,83.018 47.607,82.645 C46.496,83.519 45.337,84.335 44.172,85.114 C43.480,85.576 42.320,86.071 41.231,86.574 C41.121,86.495 40.972,86.479 40.828,86.586 C40.570,86.774 40.306,86.967 40.042,87.159 C40.013,87.174 39.987,87.189 39.960,87.205 C39.936,87.031 39.935,86.855 39.960,86.669 C40.502,86.195 40.974,85.810 41.223,85.636 ZM39.382,88.647 C42.842,87.850 46.170,85.129 48.782,82.970 C48.843,83.264 48.683,83.745 48.216,84.473 C47.779,85.153 47.218,85.730 46.582,86.238 C45.757,86.760 44.933,87.262 44.132,87.737 C44.071,87.773 44.007,87.807 43.947,87.841 C42.025,88.766 39.913,89.449 38.224,90.303 C38.118,90.357 38.051,90.436 38.019,90.521 C37.314,90.738 36.926,90.747 36.778,90.606 C37.653,89.945 38.526,89.294 39.382,88.647 ZM38.855,80.531 C38.863,80.683 39.097,80.770 39.188,80.634 C39.379,80.356 39.432,80.291 39.548,80.002 C39.608,79.848 39.561,79.643 39.390,79.578 C39.285,79.537 39.177,79.497 39.072,79.454 C39.331,79.109 39.624,78.798 40.024,78.560 C40.422,79.591 39.595,80.488 38.712,81.081 C38.621,80.767 38.591,80.459 38.662,80.158 C38.768,80.103 38.843,80.178 38.855,80.531 ZM52.836,62.035 C50.823,63.504 48.808,64.980 46.815,66.494 C48.327,65.096 49.876,63.727 51.444,62.391 C52.316,61.992 53.158,61.564 53.988,61.110 C53.607,61.420 53.220,61.726 52.836,62.035 ZM60.513,50.403 C60.962,50.046 67.388,46.706 66.408,49.068 C65.985,50.086 65.046,50.999 64.321,51.806 C62.773,53.531 61.053,55.102 59.299,56.626 C57.638,57.849 55.954,59.043 54.182,60.122 C54.153,60.140 54.136,60.149 54.107,60.167 C56.794,57.956 59.506,55.828 62.158,53.776 C62.445,53.553 62.139,53.105 61.838,53.311 C61.553,53.509 61.264,53.713 60.974,53.914 C62.431,52.619 63.892,51.333 65.370,50.069 C65.714,49.774 65.331,49.200 64.967,49.487 C60.658,52.885 56.691,56.679 52.525,60.243 C50.221,62.099 47.945,64.060 45.765,66.105 C49.591,60.182 55.160,54.663 60.513,50.403 ZM59.136,38.501 C61.425,34.915 63.249,31.006 65.884,27.656 C69.234,23.399 67.598,30.614 67.261,31.430 C66.693,32.797 65.940,34.099 65.140,35.361 C63.720,37.054 62.353,38.790 60.993,40.548 C60.979,40.563 60.963,40.579 60.948,40.594 C59.552,42.059 58.149,43.484 56.695,44.863 C57.143,44.292 57.575,43.702 58.000,43.107 C58.505,42.544 58.992,41.997 59.435,41.506 C62.757,37.828 65.556,34.132 67.000,29.367 C67.094,29.062 66.677,28.843 66.446,29.017 C65.631,29.635 65.879,29.392 65.218,30.233 C64.997,30.514 65.391,30.841 65.636,30.586 C65.902,31.364 65.659,32.092 64.910,32.771 C63.800,35.173 61.879,37.340 60.187,39.367 C60.023,39.566 59.847,39.756 59.679,39.953 C59.502,39.843 59.227,39.847 59.083,40.078 C59.386,39.593 57.168,42.488 55.981,44.136 C55.796,44.344 55.616,44.555 55.431,44.766 C56.252,42.565 57.947,40.367 59.136,38.501 ZM58.711,18.237 C58.736,18.046 58.452,17.996 58.417,18.188 C58.392,18.344 58.353,18.501 58.328,18.655 C58.340,15.361 58.107,12.054 58.343,8.760 C58.385,8.185 58.921,6.316 59.487,4.778 C60.456,8.432 59.810,12.858 59.299,16.348 C59.057,17.999 58.682,19.630 58.270,21.246 C58.431,20.247 58.588,19.248 58.711,18.237 ZM57.299,22.980 C57.188,21.454 57.121,19.917 57.099,18.372 C57.124,18.536 57.263,18.580 57.380,18.544 C57.425,20.070 57.421,21.562 57.299,22.980 ZM60.784,2.675 C61.816,5.519 61.552,8.924 61.222,11.854 C61.040,13.482 60.681,15.096 60.250,16.687 C61.103,12.237 61.296,7.487 59.880,3.779 C60.279,2.845 60.638,2.272 60.784,2.675 ZM54.935,15.978 C54.614,13.319 54.602,10.633 54.869,7.963 C54.975,6.897 56.777,-1.313 58.820,2.894 C58.874,3.009 58.904,3.137 58.956,3.252 C57.673,5.621 57.267,8.392 57.203,11.288 C57.201,11.252 57.199,11.217 57.196,11.182 C57.188,10.944 57.173,10.751 57.161,10.564 C57.184,9.587 57.210,8.606 57.229,7.637 C57.238,7.138 56.475,7.222 56.460,7.711 C56.424,8.933 56.441,10.147 56.479,11.358 C56.424,11.885 56.388,12.401 56.386,12.750 C56.346,17.121 56.532,21.475 56.691,25.842 C55.916,22.594 55.331,19.287 54.935,15.978 ZM51.988,29.668 C51.781,29.655 51.575,29.336 51.466,29.192 C51.250,28.910 51.078,28.570 50.975,28.215 C51.055,28.092 51.155,27.975 51.288,27.876 C51.793,27.507 52.067,27.817 52.190,28.235 C51.946,28.180 51.656,28.372 51.785,28.661 C51.910,28.937 52.018,29.224 52.122,29.512 C52.083,29.600 52.042,29.671 51.988,29.668 ZM43.281,30.853 C43.403,29.498 43.668,28.179 44.145,26.929 C44.344,26.410 44.699,26.691 45.100,27.335 C44.190,28.308 43.605,29.508 43.281,30.853 ZM45.626,46.211 C45.524,45.802 45.422,45.388 45.322,44.989 C45.311,44.944 45.298,44.899 45.286,44.853 C45.400,44.790 45.493,44.691 45.472,44.539 C45.132,41.935 44.625,39.363 44.330,36.753 C44.118,34.866 44.510,28.874 45.785,28.662 C46.583,30.428 47.348,32.742 47.365,32.873 C47.745,35.624 47.451,38.467 47.174,41.216 C47.051,42.461 46.891,43.701 46.728,44.942 C46.610,40.999 46.359,37.048 46.432,33.145 C46.436,32.844 45.922,32.826 45.904,33.129 C45.655,37.395 45.479,41.832 45.626,46.211 ZM39.071,56.139 C39.191,56.300 39.296,56.472 39.395,56.648 C39.108,56.787 38.754,56.640 38.504,56.424 C38.505,56.420 38.510,56.416 38.511,56.411 C38.565,56.149 38.659,55.907 38.761,55.660 C38.857,55.425 38.520,55.271 38.402,55.496 C38.365,55.565 38.320,55.623 38.283,55.689 C38.208,55.417 38.198,55.138 38.338,54.835 C38.493,54.502 38.924,54.163 39.280,54.412 C39.629,54.655 39.866,55.387 39.795,55.967 C39.742,55.893 39.707,55.808 39.649,55.735 C39.365,55.393 38.800,55.772 39.071,56.139 ZM26.197,90.774 C26.247,90.790 26.297,90.801 26.351,90.845 C26.926,91.302 26.325,91.902 25.812,92.250 C25.809,92.113 25.821,91.977 25.838,91.844 C25.959,91.711 26.067,91.574 26.117,91.424 C26.143,91.342 26.131,91.226 26.033,91.193 C26.022,91.189 26.012,91.196 26.002,91.191 C26.057,91.050 26.119,90.910 26.197,90.774 ZM27.471,80.284 C27.412,80.394 27.340,80.531 27.274,80.674 C27.215,80.662 27.158,80.650 27.097,80.670 C26.872,80.633 26.667,80.578 26.534,80.470 C26.585,80.154 26.697,79.838 26.845,79.545 C26.866,79.591 26.900,79.633 26.964,79.640 C27.180,79.665 27.396,79.658 27.610,79.675 C27.690,79.681 27.723,79.689 27.743,79.694 C27.701,79.900 27.568,80.110 27.471,80.284 ZM27.010,79.250 C27.080,79.137 27.152,79.017 27.229,78.925 C27.275,78.867 27.282,78.811 27.271,78.758 C27.563,78.514 27.892,78.374 28.204,78.525 C28.622,78.722 28.780,79.165 28.749,79.603 C28.710,80.131 28.428,80.695 28.036,81.113 C28.024,81.023 27.981,80.936 27.886,80.863 C28.106,81.034 27.923,81.228 28.094,80.886 C28.166,80.740 28.246,80.600 28.319,80.457 C28.455,80.196 28.608,79.882 28.589,79.580 C28.534,78.708 27.539,78.912 27.010,79.250 ZM28.807,58.823 C28.709,59.169 28.634,59.423 28.614,59.500 C27.976,61.273 27.116,62.971 26.264,64.648 C25.915,65.332 25.539,66.000 25.154,66.664 C26.222,63.978 27.314,61.299 28.807,58.823 ZM22.939,69.691 C23.120,68.300 23.362,66.918 23.640,65.542 C24.395,61.787 25.639,57.338 28.733,54.813 C29.648,54.067 29.602,55.263 29.338,56.634 C26.074,60.071 24.689,65.308 22.939,69.691 ZM22.203,73.405 C21.925,73.808 22.384,72.551 22.643,71.525 C22.816,71.623 23.032,71.628 23.176,71.423 C23.234,71.345 23.292,71.261 23.349,71.180 C22.952,71.919 22.572,72.661 22.203,73.405 ZM22.058,39.837 C21.929,40.038 21.956,40.972 22.025,41.997 C19.886,46.660 19.748,51.977 19.624,57.166 C17.806,51.663 19.161,44.331 22.058,39.837 ZM22.168,43.732 C22.227,44.403 22.274,44.932 22.267,45.082 C22.157,47.061 21.792,49.029 21.433,50.975 C21.188,52.310 20.905,53.637 20.625,54.962 C20.674,53.404 20.738,51.847 20.862,50.291 C21.043,48.053 21.494,45.877 22.168,43.732 ZM20.953,58.115 C22.049,52.670 23.779,47.010 23.123,41.546 C23.160,41.474 23.190,41.401 23.229,41.328 C24.677,38.385 24.476,40.638 24.680,42.103 C25.461,47.711 23.401,54.324 21.054,59.620 C21.031,59.120 20.998,58.615 20.953,58.115 ZM10.686,63.544 C10.752,63.615 10.809,63.694 10.872,63.768 C10.654,63.812 10.458,64.024 10.465,64.252 C10.476,64.647 10.506,65.040 10.540,65.430 C9.656,64.316 8.646,63.325 7.498,62.490 C7.104,59.620 10.361,63.183 10.686,63.544 ZM12.378,75.609 C10.728,73.043 9.142,70.472 7.886,67.680 C7.799,67.485 7.274,65.521 7.043,64.190 C7.468,65.906 8.346,67.530 9.197,69.136 C10.358,71.334 11.429,73.573 12.507,75.809 C12.466,75.739 12.422,75.674 12.378,75.609 ZM15.918,81.027 C15.239,79.742 14.619,78.423 13.992,77.118 C12.638,74.287 11.351,71.432 9.865,68.667 C8.942,66.946 8.197,65.380 7.730,63.532 C8.641,64.343 9.386,65.350 10.091,66.330 C10.344,66.682 10.570,67.056 10.804,67.423 C11.653,72.192 13.946,76.681 16.212,81.029 C16.300,81.328 16.390,81.631 16.478,81.927 C16.293,81.625 16.107,81.326 15.918,81.027 ZM16.827,80.100 C15.586,75.631 14.149,70.821 11.660,66.991 C11.564,66.433 11.458,65.877 11.394,65.310 C11.473,65.993 13.502,68.865 14.092,69.807 C14.169,70.005 14.244,70.202 14.322,70.395 C15.676,73.894 16.526,77.568 17.393,81.225 C17.203,80.852 17.015,80.475 16.827,80.100 ZM3.411,82.298 C5.715,83.174 7.560,86.432 8.951,89.125 C8.459,88.504 7.973,87.880 7.441,87.283 C6.267,85.952 4.145,83.491 2.324,82.129 C2.581,82.072 2.936,82.118 3.411,82.298 ZM6.784,92.511 C5.695,91.245 4.714,89.890 3.772,88.511 C3.772,88.510 3.770,88.507 3.767,88.506 C4.492,89.279 5.206,89.983 5.758,90.574 C7.586,92.528 9.490,94.358 11.496,96.050 C9.764,95.105 8.111,94.053 6.784,92.511 ZM7.899,91.663 C5.977,89.806 4.153,87.852 2.555,85.706 C2.431,85.538 2.330,85.396 2.226,85.253 C2.032,84.722 1.885,84.198 1.802,83.735 C2.387,84.040 3.443,84.906 4.315,85.672 C7.256,88.269 9.511,91.300 11.588,94.603 C11.722,94.816 11.907,95.082 12.115,95.368 C10.679,94.206 9.271,92.987 7.899,91.663 ZM45.198,100.835 C41.709,104.803 36.249,107.827 31.318,109.445 C28.702,110.306 28.992,109.223 29.898,107.946 C30.725,107.447 31.546,106.936 32.346,106.396 C32.491,106.496 32.684,106.530 32.852,106.423 C33.561,105.974 33.499,106.016 34.079,105.451 C34.192,105.341 34.211,105.199 34.176,105.063 C34.423,104.868 34.667,104.676 34.905,104.470 C36.417,103.163 38.216,102.186 40.079,101.374 C39.441,101.929 38.831,102.438 38.467,102.743 C36.130,104.707 33.618,106.407 31.379,108.496 C31.122,108.735 31.512,109.141 31.786,108.944 C35.529,106.260 39.412,103.821 42.471,100.417 C42.885,100.265 43.296,100.114 43.704,99.969 C44.982,99.516 45.768,99.350 46.229,99.365 C46.083,99.722 45.756,100.201 45.198,100.835 Z"/>
</svg>