<svg 
 xmlns="http://www.w3.org/2000/svg"
 xmlns:xlink="http://www.w3.org/1999/xlink"
 width="84px" height="131px">
<path fill-rule="evenodd"  fill="rgb(66, 66, 66)"
 d="M27.872,98.873 C27.832,98.716 27.934,98.557 28.084,98.455 C28.060,98.181 28.252,97.913 28.593,97.836 C29.925,97.533 31.357,97.481 32.831,97.594 C32.956,97.462 33.129,97.359 33.363,97.345 C39.000,97.025 46.711,101.293 50.392,105.874 C50.396,105.879 50.405,105.887 50.413,105.894 C54.144,107.476 57.707,109.427 60.254,112.143 C58.625,108.820 57.012,105.487 55.411,102.151 C55.416,102.404 54.927,102.554 54.815,102.291 C52.727,97.351 48.008,93.924 43.033,90.904 C42.937,90.981 42.828,91.046 42.708,91.070 C37.468,92.086 31.018,88.228 27.050,86.063 C24.199,84.509 15.840,80.091 17.345,76.086 C17.757,74.983 18.627,74.488 19.789,74.423 C19.795,74.367 19.789,74.310 19.797,74.253 C19.846,73.912 20.212,73.710 20.578,73.780 C23.751,74.379 35.514,80.047 38.045,84.614 C40.387,86.002 42.248,87.793 43.057,89.858 C47.430,92.509 51.687,95.592 54.106,99.443 C52.770,96.671 51.417,93.908 50.045,91.153 C49.894,91.188 49.716,91.139 49.667,90.976 C48.754,87.953 46.136,85.605 43.694,83.470 C42.598,82.512 41.440,81.601 40.282,80.697 C40.177,80.616 40.072,80.507 39.966,80.392 C39.933,80.636 39.867,80.887 39.746,81.146 C39.654,81.345 39.387,81.502 39.147,81.425 C37.193,80.795 35.567,79.070 36.873,77.201 C36.990,77.032 37.260,76.945 37.467,77.004 C38.724,77.367 39.971,78.341 40.015,79.583 C42.448,81.399 45.174,83.357 47.243,85.642 C46.046,83.338 44.836,81.046 43.570,78.774 C40.886,75.720 37.805,72.856 34.490,70.147 C34.326,70.279 34.092,70.333 33.855,70.205 C30.935,68.647 28.088,66.989 25.288,65.267 C24.036,64.632 22.770,64.008 21.518,63.377 C15.646,60.407 10.719,56.328 5.323,52.804 C4.827,52.480 5.362,51.748 5.900,52.051 C6.380,52.324 6.852,52.609 7.329,52.887 C6.483,51.920 5.860,50.902 5.609,49.838 C4.723,46.113 13.685,50.339 14.151,50.603 C21.304,54.689 28.555,61.071 32.913,67.506 C36.224,70.108 39.281,72.865 41.857,75.744 C41.550,75.211 41.265,74.670 40.951,74.140 C37.498,68.294 33.883,62.458 30.492,56.529 C27.855,54.055 25.036,51.758 22.335,49.377 C21.393,48.833 20.484,48.259 19.602,47.664 C19.765,47.810 19.897,47.973 20.037,48.130 C21.411,49.212 22.810,50.269 24.213,51.309 C24.704,51.673 23.931,52.460 23.425,52.111 C22.637,51.566 21.878,50.998 21.140,50.420 C18.414,48.398 15.883,46.212 13.427,43.949 C11.913,42.556 10.152,40.854 8.519,38.973 C5.655,36.716 2.889,34.415 1.032,31.366 C0.775,30.944 1.448,30.615 1.809,30.890 C2.734,31.589 3.619,32.315 4.489,33.052 C3.455,30.867 2.940,28.614 3.389,26.418 C3.452,26.108 3.778,25.869 4.144,25.961 C8.299,26.995 10.362,30.311 12.433,33.345 C15.484,37.812 19.600,41.872 21.424,46.914 C21.426,46.917 21.423,46.918 21.424,46.921 C22.078,47.555 22.727,48.194 23.340,48.862 C23.521,49.058 23.458,49.315 23.290,49.479 C25.357,51.298 27.516,53.054 29.557,54.894 C27.338,50.959 25.243,46.976 23.360,42.919 C23.304,43.083 22.998,43.163 22.917,42.978 C22.439,41.907 22.072,40.716 21.822,39.466 C20.335,35.977 19.023,32.431 17.969,28.797 C17.782,28.989 17.376,28.857 17.465,28.564 C17.544,28.306 17.609,28.044 17.687,27.786 C17.636,27.594 17.577,27.402 17.524,27.209 C17.365,27.199 17.213,27.150 17.129,27.017 C12.713,19.834 9.399,10.214 13.016,1.857 C13.140,1.575 13.542,1.496 13.770,1.696 C14.254,2.122 14.663,2.586 15.033,3.064 C15.493,2.270 16.030,1.516 16.699,0.841 C16.836,0.701 17.078,0.744 17.200,0.845 C24.766,7.077 21.262,19.214 18.448,27.543 C19.327,30.318 20.347,33.040 21.457,35.725 C21.459,33.603 21.846,31.484 22.635,29.582 C22.554,29.392 22.497,29.192 22.480,29.019 C22.370,28.059 23.024,26.828 24.358,27.086 C24.638,27.140 24.881,27.253 25.091,27.391 C25.245,27.342 25.436,27.376 25.444,27.536 C25.447,27.582 25.433,27.634 25.434,27.680 C25.935,28.225 26.065,29.028 25.642,29.720 C25.543,29.884 25.241,29.831 25.216,29.665 C25.186,29.443 25.157,29.219 25.112,28.999 C24.915,29.420 24.642,29.815 24.298,30.108 C23.856,30.483 23.483,30.470 23.189,30.286 C22.328,32.747 22.165,35.431 22.428,38.021 C24.515,42.799 26.898,47.464 29.445,52.066 C28.954,44.109 23.267,33.784 30.407,26.535 C30.472,26.467 30.551,26.429 30.636,26.410 C31.073,25.896 31.555,25.397 32.128,24.928 C32.361,24.735 32.662,24.819 32.810,25.015 C35.535,28.638 34.928,33.121 34.141,37.383 C33.261,42.156 29.120,50.026 31.323,54.379 C31.441,54.608 31.144,54.796 30.938,54.727 C33.119,58.564 35.395,62.370 37.678,66.174 C37.411,65.216 37.172,64.252 36.983,63.283 C36.584,61.259 36.171,58.567 37.118,56.414 C36.152,55.379 36.857,52.993 38.503,52.672 C38.837,52.607 39.125,52.648 39.388,52.729 C39.428,52.724 39.471,52.716 39.511,52.730 C40.957,53.185 41.381,54.997 40.376,56.083 C39.750,56.755 38.654,57.116 37.795,56.839 C36.445,60.037 37.520,64.537 38.883,68.186 C39.965,69.988 41.045,71.791 42.116,73.599 C48.158,83.804 53.297,94.339 58.347,104.923 C58.220,103.416 58.261,101.876 58.397,100.320 C58.293,100.290 58.202,100.221 58.221,100.088 C58.309,99.395 58.343,98.708 58.354,98.026 C58.213,98.012 58.075,97.918 58.075,97.770 C58.053,96.006 57.174,94.407 56.257,92.920 C55.842,92.245 55.372,91.603 54.843,90.994 C54.834,91.077 54.848,91.154 54.831,91.242 C54.796,91.455 54.545,91.643 54.298,91.569 C53.044,91.183 51.575,89.976 52.904,88.787 C53.314,88.422 53.970,88.340 54.452,88.547 C55.190,88.864 55.490,89.647 55.375,90.353 C55.990,91.008 56.515,91.897 56.751,92.238 C57.170,92.844 57.684,93.623 58.097,94.458 C57.342,89.664 55.081,85.108 52.710,80.826 C52.622,80.833 52.539,80.846 52.438,80.845 C50.918,80.836 49.875,79.215 49.843,78.056 C49.826,77.376 50.305,76.805 50.949,76.430 C52.144,75.739 53.033,76.715 53.742,77.341 C54.281,77.822 54.718,78.789 54.039,79.389 C54.009,79.415 53.976,79.424 53.943,79.446 C53.971,79.896 53.860,80.303 53.518,80.560 C56.093,85.233 58.687,90.251 59.073,95.545 C59.533,93.041 60.101,90.541 60.560,88.119 C60.407,88.115 60.265,88.015 60.331,87.847 C60.471,87.501 60.634,87.160 60.789,86.817 C60.876,86.299 60.971,85.782 61.042,85.272 C61.305,83.384 61.365,81.507 61.329,79.638 C61.322,79.623 61.307,79.623 61.302,79.608 C60.476,77.329 59.387,75.177 58.180,73.080 C58.067,73.049 57.967,72.996 57.910,72.898 C55.476,68.766 52.443,64.910 50.478,60.566 C50.448,60.495 50.464,60.436 50.500,60.388 C49.543,58.540 48.700,56.638 48.086,54.633 C48.005,54.371 48.344,54.141 48.624,54.185 C48.567,53.584 48.541,52.983 48.578,52.383 C48.595,52.116 48.916,51.969 49.185,52.017 C57.417,53.515 58.815,66.309 58.859,72.424 C59.774,74.041 60.583,75.697 61.241,77.431 C60.870,71.461 59.610,65.544 59.603,59.541 C59.581,59.516 59.556,59.503 59.541,59.475 C55.930,53.576 51.931,43.796 55.400,36.910 C55.548,36.619 56.024,36.456 56.273,36.725 C56.717,37.204 57.107,37.705 57.475,38.214 C57.585,37.717 57.713,37.221 57.876,36.726 C57.978,36.408 58.510,36.302 58.736,36.541 C62.921,40.974 65.211,50.743 61.370,56.691 C61.394,57.374 61.418,58.053 61.458,58.725 C61.486,59.206 60.831,59.451 60.525,59.202 C60.542,59.377 60.425,59.525 60.260,59.611 C60.493,66.241 61.554,72.764 61.912,79.389 C61.922,79.419 61.933,79.448 61.940,79.477 C61.954,79.519 61.930,79.547 61.921,79.580 C61.947,80.068 61.979,80.553 61.995,81.040 C62.004,81.331 61.982,81.618 61.985,81.907 C62.053,81.673 62.116,81.406 62.179,81.162 C62.165,76.229 62.272,71.312 61.479,66.409 C61.441,66.174 61.852,66.086 61.905,66.322 C62.692,69.859 63.085,73.542 63.172,77.246 C63.212,77.080 63.248,76.926 63.290,76.760 C63.287,76.742 63.276,76.727 63.281,76.708 C63.349,76.447 63.425,76.187 63.495,75.926 C65.335,68.555 67.942,60.067 75.413,57.161 C75.715,57.045 76.021,57.157 76.092,57.429 C76.216,57.901 76.263,58.364 76.277,58.826 C76.363,58.771 76.444,58.707 76.534,58.657 C76.796,58.498 77.071,58.730 77.068,58.949 C76.907,66.772 70.370,73.736 65.268,80.719 C64.791,81.473 64.301,82.224 63.790,82.966 C63.739,83.049 63.665,83.094 63.589,83.123 C63.369,83.453 63.190,83.785 62.982,84.116 C62.923,84.845 62.859,85.571 62.781,86.297 C62.754,86.532 62.298,86.589 62.286,86.341 C62.271,85.993 62.264,85.646 62.253,85.300 C62.119,85.527 61.961,85.754 61.835,85.984 C61.706,87.574 61.503,89.155 61.285,90.735 C62.601,88.782 64.462,87.099 66.694,85.917 C66.659,85.803 66.626,85.685 66.623,85.566 C66.600,84.728 67.473,83.976 68.430,83.918 C69.660,83.841 70.343,84.932 69.912,85.885 C69.841,86.039 69.595,86.073 69.514,85.926 C69.294,85.529 69.141,84.741 68.518,84.694 C68.047,84.658 67.565,85.022 67.498,85.422 C67.490,85.453 67.501,85.484 67.505,85.519 C67.739,85.410 67.970,85.301 68.211,85.203 C68.672,85.021 69.000,85.601 68.537,85.785 C68.274,85.891 68.045,86.015 67.800,86.129 C68.198,86.522 68.893,86.792 69.358,86.743 C70.529,86.615 70.456,84.950 70.253,84.313 C70.168,84.046 70.705,83.869 70.806,84.133 C71.168,85.107 71.234,87.051 69.633,87.410 C68.715,87.615 67.609,87.182 67.028,86.497 C63.969,88.136 62.225,90.525 60.923,93.288 C60.606,95.453 60.281,97.613 60.063,99.783 C62.688,98.028 65.236,96.320 67.708,94.536 C68.049,93.992 68.385,93.442 68.737,92.906 C70.869,89.288 72.937,85.658 75.517,82.236 C76.713,80.653 80.676,77.668 82.482,78.095 C82.643,78.010 82.810,77.906 82.960,77.838 C83.237,77.721 83.521,77.843 83.586,78.086 C83.826,78.969 83.653,79.892 83.241,80.814 C83.225,80.874 83.228,80.919 83.211,80.980 C81.589,87.949 74.812,92.132 68.294,95.676 C68.111,95.967 67.935,96.263 67.747,96.551 C67.467,96.971 66.933,96.831 66.760,96.507 C66.400,96.700 66.042,96.890 65.690,97.081 C63.882,98.247 62.003,99.342 60.017,100.338 C59.773,102.985 59.690,105.645 59.978,108.340 C63.504,115.749 67.025,123.168 70.820,130.491 C71.025,130.889 70.313,131.220 70.086,130.827 C67.108,125.693 64.378,120.450 61.746,115.165 C61.727,115.148 61.699,115.148 61.682,115.124 C59.518,111.820 56.206,109.954 52.673,108.308 C53.107,108.855 53.504,109.397 53.812,109.927 C53.958,110.180 53.765,110.614 53.388,110.651 C50.112,110.975 46.795,110.063 43.714,108.921 C41.062,108.206 38.372,107.087 35.956,105.729 C32.461,104.126 28.687,101.907 27.872,98.873 ZM19.899,75.787 C18.680,76.288 18.709,77.965 20.011,79.475 C21.673,81.404 23.925,83.001 26.355,84.390 C25.953,83.735 25.655,83.020 25.527,82.228 C25.512,82.129 25.524,82.037 25.556,81.954 C23.247,80.390 20.514,78.239 19.899,75.787 ZM29.019,79.432 C26.979,78.116 24.808,76.913 22.464,76.010 C22.036,75.848 21.650,75.743 21.301,75.687 C21.680,76.364 22.056,77.222 22.212,77.424 C22.995,78.427 24.041,79.275 25.043,80.108 C25.634,80.602 26.251,81.065 26.892,81.513 C29.200,81.493 31.816,81.974 34.284,82.859 C32.487,81.581 30.572,80.433 29.019,79.432 ZM36.129,85.215 C35.249,84.739 30.945,82.922 28.689,82.693 C29.983,83.487 31.335,84.220 32.692,84.915 C33.499,85.327 34.851,85.736 36.120,86.159 C36.248,86.072 36.422,86.044 36.590,86.141 C36.891,86.310 37.198,86.484 37.505,86.658 C37.540,86.670 37.570,86.683 37.601,86.698 C37.629,86.521 37.631,86.343 37.602,86.159 C36.970,85.722 36.420,85.372 36.129,85.215 ZM38.275,88.103 C34.241,87.565 30.363,85.082 27.318,83.109 C27.248,83.410 27.434,83.881 27.979,84.577 C28.487,85.228 29.141,85.766 29.883,86.228 C30.844,86.690 31.804,87.132 32.737,87.550 C32.809,87.582 32.884,87.610 32.953,87.640 C35.194,88.424 37.655,88.951 39.624,89.681 C39.748,89.726 39.825,89.801 39.863,89.885 C40.685,90.049 41.137,90.028 41.309,89.875 C40.290,89.277 39.273,88.688 38.275,88.103 ZM38.892,79.901 C38.883,80.055 38.610,80.160 38.503,80.030 C38.281,79.764 38.220,79.704 38.085,79.422 C38.014,79.271 38.069,79.062 38.268,78.984 C38.391,78.934 38.516,78.886 38.639,78.835 C38.338,78.507 37.996,78.217 37.529,78.008 C37.065,79.075 38.029,79.914 39.058,80.444 C39.164,80.121 39.200,79.808 39.117,79.511 C38.994,79.464 38.906,79.546 38.892,79.901 ZM22.601,62.363 C24.947,63.688 27.295,65.019 29.618,66.390 C27.855,65.099 26.051,63.840 24.223,62.615 C23.206,62.281 22.225,61.914 21.258,61.521 C21.702,61.804 22.152,62.081 22.601,62.363 ZM13.656,51.249 C13.132,50.925 5.642,48.054 6.784,50.356 C7.277,51.347 8.370,52.193 9.215,52.950 C11.020,54.567 13.025,56.016 15.068,57.416 C17.004,58.519 18.967,59.592 21.032,60.542 C21.066,60.557 21.086,60.566 21.120,60.581 C17.988,58.562 14.827,56.629 11.736,54.767 C11.402,54.565 11.759,54.091 12.110,54.275 C12.442,54.452 12.779,54.636 13.116,54.815 C11.419,53.624 9.716,52.442 7.994,51.283 C7.592,51.013 8.039,50.406 8.463,50.666 C13.486,53.756 18.108,57.271 22.964,60.538 C25.648,62.230 28.301,64.028 30.841,65.919 C26.383,60.254 19.894,55.126 13.656,51.249 ZM15.265,39.175 C12.597,35.743 10.473,31.950 7.402,28.781 C3.499,24.755 5.403,31.887 5.796,32.681 C6.457,34.014 7.335,35.265 8.267,36.474 C9.921,38.068 11.515,39.711 13.099,41.375 C13.115,41.389 13.135,41.404 13.151,41.417 C14.778,42.784 16.413,44.111 18.108,45.388 C17.585,44.847 17.083,44.287 16.587,43.721 C15.999,43.193 15.431,42.680 14.915,42.220 C11.044,38.774 7.783,35.269 6.100,30.586 C5.991,30.288 6.478,30.036 6.746,30.192 C7.696,30.752 7.407,30.527 8.178,31.323 C8.435,31.589 7.975,31.947 7.691,31.709 C7.379,32.512 7.663,33.226 8.536,33.851 C9.829,36.183 12.067,38.216 14.040,40.125 C14.230,40.313 14.436,40.491 14.631,40.676 C14.838,40.552 15.158,40.535 15.326,40.757 C14.973,40.291 17.557,43.035 18.940,44.601 C19.155,44.797 19.366,44.995 19.581,45.193 C18.625,43.043 16.651,40.960 15.265,39.175 ZM15.767,18.763 C15.737,18.572 16.069,18.501 16.109,18.692 C16.139,18.847 16.184,19.002 16.213,19.154 C16.200,15.842 16.473,12.499 16.199,9.204 C16.150,8.629 15.526,6.791 14.867,5.286 C13.736,9.035 14.488,13.437 15.082,16.908 C15.363,18.550 15.800,20.161 16.280,21.756 C16.093,20.763 15.910,19.770 15.767,18.763 ZM17.411,23.426 C17.541,21.882 17.620,20.331 17.646,18.776 C17.617,18.943 17.455,18.998 17.319,18.970 C17.265,20.509 17.270,22.008 17.411,23.426 ZM13.356,3.270 C12.151,6.208 12.458,9.613 12.842,12.535 C13.054,14.158 13.472,15.754 13.973,17.321 C12.981,12.911 12.758,8.149 14.409,4.312 C13.945,3.402 13.526,2.854 13.356,3.270 ZM20.170,16.204 C20.544,13.505 20.559,10.803 20.249,8.139 C20.126,7.074 18.028,-1.046 15.646,3.341 C15.582,3.460 15.547,3.591 15.486,3.712 C16.981,5.997 17.454,8.752 17.527,11.660 C17.530,11.623 17.531,11.588 17.536,11.552 C17.545,11.313 17.562,11.117 17.577,10.928 C17.550,9.948 17.520,8.963 17.498,7.989 C17.488,7.489 18.377,7.515 18.395,8.006 C18.436,9.232 18.416,10.454 18.371,11.675 C18.435,12.201 18.477,12.717 18.479,13.067 C18.524,17.460 18.306,21.854 18.119,26.258 C19.024,22.932 19.707,19.561 20.170,16.204 ZM23.600,29.747 C23.841,29.719 24.082,29.382 24.209,29.229 C24.461,28.929 24.661,28.575 24.782,28.210 C24.688,28.092 24.572,27.982 24.417,27.892 C23.828,27.559 23.509,27.893 23.365,28.322 C23.649,28.248 23.988,28.419 23.837,28.719 C23.691,29.007 23.566,29.304 23.444,29.601 C23.489,29.686 23.538,29.755 23.600,29.747 ZM33.750,30.277 C33.607,28.924 33.300,27.617 32.743,26.396 C32.511,25.890 32.098,26.198 31.630,26.877 C32.691,27.787 33.373,28.949 33.750,30.277 ZM31.010,45.901 C31.129,45.482 31.249,45.057 31.366,44.649 C31.378,44.603 31.393,44.557 31.408,44.509 C31.274,44.455 31.166,44.362 31.190,44.207 C31.588,41.564 32.179,38.938 32.524,36.290 C32.772,34.377 32.317,28.380 30.831,28.264 C29.900,30.101 29.007,32.486 28.988,32.619 C28.544,35.415 28.886,38.251 29.208,40.996 C29.351,42.238 29.537,43.473 29.726,44.709 C29.865,40.735 30.159,36.742 30.075,32.822 C30.071,32.520 30.670,32.462 30.691,32.765 C30.980,37.037 31.184,41.486 31.010,45.901 ZM38.649,55.387 C38.508,55.557 38.386,55.739 38.270,55.923 C38.605,56.041 39.017,55.866 39.309,55.630 C39.308,55.626 39.302,55.623 39.301,55.618 C39.238,55.358 39.129,55.122 39.010,54.881 C38.898,54.652 39.291,54.472 39.429,54.689 C39.471,54.756 39.524,54.810 39.567,54.874 C39.655,54.595 39.666,54.314 39.504,54.020 C39.323,53.696 38.820,53.389 38.406,53.665 C37.999,53.936 37.722,54.691 37.804,55.269 C37.866,55.190 37.907,55.101 37.975,55.025 C38.306,54.658 38.965,54.997 38.649,55.387 ZM53.643,89.239 C53.585,89.260 53.527,89.274 53.465,89.322 C52.794,89.826 53.494,90.384 54.092,90.695 C54.096,90.557 54.081,90.421 54.062,90.288 C53.920,90.164 53.795,90.034 53.736,89.887 C53.707,89.806 53.721,89.689 53.834,89.648 C53.848,89.644 53.859,89.649 53.871,89.644 C53.807,89.506 53.734,89.370 53.643,89.239 ZM52.162,78.787 C52.231,78.893 52.315,79.025 52.391,79.164 C52.460,79.147 52.527,79.131 52.598,79.146 C52.860,79.092 53.100,79.021 53.254,78.902 C53.195,78.589 53.064,78.279 52.892,77.995 C52.868,78.044 52.828,78.089 52.753,78.101 C52.502,78.142 52.250,78.151 52.000,78.185 C51.907,78.197 51.869,78.207 51.845,78.214 C51.895,78.418 52.049,78.619 52.162,78.787 ZM52.700,77.712 C52.618,77.603 52.534,77.488 52.444,77.401 C52.391,77.347 52.383,77.291 52.396,77.237 C52.055,77.013 51.672,76.898 51.308,77.073 C50.821,77.303 50.637,77.762 50.672,78.199 C50.718,78.727 51.046,79.273 51.503,79.663 C51.517,79.572 51.568,79.481 51.678,79.401 C51.422,79.589 51.635,79.770 51.436,79.440 C51.351,79.299 51.259,79.163 51.173,79.025 C51.015,78.774 50.837,78.469 50.859,78.164 C50.923,77.282 52.083,77.412 52.700,77.712 ZM50.613,57.304 C50.726,57.645 50.814,57.896 50.837,57.971 C51.580,59.706 52.582,61.348 53.574,62.970 C53.981,63.631 54.419,64.275 54.867,64.912 C53.624,62.292 52.352,59.681 50.613,57.304 ZM57.449,67.789 C57.238,66.403 56.956,65.032 56.633,63.669 C55.754,59.950 54.306,55.571 50.699,53.267 C49.633,52.586 49.687,53.785 49.994,55.144 C53.797,58.352 55.410,63.514 57.449,67.789 ZM58.305,71.467 C58.629,71.852 58.095,70.623 57.793,69.611 C57.591,69.722 57.340,69.743 57.171,69.549 C57.104,69.474 57.037,69.395 56.971,69.317 C57.433,70.030 57.876,70.747 58.305,71.467 ZM58.486,37.697 C58.636,37.889 58.604,38.831 58.524,39.867 C61.016,44.394 61.175,49.731 61.318,54.940 C63.438,49.267 61.861,41.997 58.486,37.697 ZM58.356,41.623 C58.287,42.302 58.232,42.838 58.241,42.988 C58.368,44.971 58.793,46.922 59.210,48.852 C59.495,50.176 59.825,51.488 60.151,52.799 C60.095,51.236 60.021,49.675 59.876,48.120 C59.666,45.883 59.142,43.728 58.356,41.623 ZM59.767,55.995 C58.492,50.602 56.478,45.042 57.244,39.497 C57.200,39.428 57.165,39.357 57.120,39.287 C55.434,36.437 55.667,38.686 55.428,40.176 C54.516,45.875 56.916,52.369 59.649,57.517 C59.676,57.012 59.715,56.501 59.767,55.995 ZM71.734,60.674 C71.657,60.751 71.590,60.835 71.517,60.914 C71.771,60.942 71.999,61.140 71.991,61.369 C71.979,61.768 71.943,62.165 71.904,62.560 C72.934,61.372 74.112,60.299 75.450,59.372 C75.911,56.456 72.113,60.287 71.734,60.674 ZM69.758,72.937 C71.682,70.231 73.531,67.524 74.996,64.621 C75.098,64.418 75.711,62.402 75.981,61.047 C75.484,62.805 74.460,64.505 73.468,66.185 C72.114,68.484 70.865,70.817 69.607,73.147 C69.655,73.074 69.707,73.005 69.758,72.937 ZM65.630,78.654 C66.421,77.311 67.144,75.937 67.875,74.577 C69.456,71.627 70.956,68.658 72.689,65.764 C73.766,63.962 74.635,62.331 75.180,60.438 C74.118,61.323 73.248,62.392 72.427,63.431 C72.131,63.805 71.868,64.198 71.596,64.585 C70.604,69.445 67.929,74.134 65.287,78.680 C65.183,78.987 65.078,79.298 64.976,79.602 C65.192,79.285 65.409,78.970 65.630,78.654 ZM64.570,77.792 C66.019,73.203 67.695,68.256 70.598,64.215 C70.710,63.646 70.833,63.079 70.908,62.504 C70.816,63.197 68.450,66.240 67.762,67.232 C67.672,67.437 67.584,67.641 67.494,67.840 C65.914,71.463 64.922,75.222 63.909,78.966 C64.132,78.577 64.350,78.183 64.570,77.792 ZM80.209,78.981 C77.522,80.038 75.370,83.455 73.748,86.268 C74.322,85.607 74.888,84.942 75.509,84.301 C76.877,82.874 79.352,80.237 81.475,78.729 C81.175,78.691 80.761,78.764 80.209,78.981 ZM76.273,89.510 C77.543,88.153 78.687,86.716 79.785,85.258 C79.785,85.256 79.788,85.253 79.791,85.252 C78.945,86.085 78.113,86.847 77.470,87.483 C75.337,89.588 73.118,91.573 70.778,93.427 C72.798,92.345 74.726,91.161 76.273,89.510 ZM74.973,88.741 C77.214,86.727 79.342,84.623 81.205,82.344 C81.349,82.166 81.467,82.016 81.588,81.863 C81.815,81.315 81.986,80.777 82.083,80.305 C81.401,80.656 80.170,81.607 79.154,82.444 C75.724,85.279 73.094,88.499 70.672,91.978 C70.516,92.203 70.300,92.485 70.057,92.788 C71.732,91.510 73.373,90.177 74.973,88.741 ZM31.491,100.803 C35.557,104.528 41.921,107.154 47.668,108.407 C50.717,109.073 50.380,108.006 49.323,106.791 C48.360,106.352 47.403,105.900 46.470,105.419 C46.301,105.530 46.076,105.578 45.880,105.484 C45.055,105.086 45.126,105.124 44.450,104.600 C44.319,104.498 44.297,104.356 44.338,104.218 C44.049,104.040 43.765,103.865 43.488,103.676 C41.725,102.477 39.629,101.631 37.458,100.956 C38.201,101.466 38.912,101.931 39.337,102.210 C42.060,104.008 44.988,105.526 47.597,107.456 C47.897,107.677 47.442,108.115 47.123,107.938 C42.760,105.524 38.234,103.366 34.670,100.175 C34.188,100.053 33.708,99.933 33.233,99.819 C31.743,99.461 30.827,99.352 30.290,99.404 C30.460,99.752 30.840,100.209 31.491,100.803 Z"/>
</svg>