<?xml version="1.0" ?><!DOCTYPE svg  PUBLIC '-//W3C//DTD SVG 1.1//EN'  'http://www.w3.org/Graphics/SVG/1.1/DTD/svg11.dtd'><svg enable-background="new 0 0 157.516 157.516" height="30" id="Layer_1" overflow="visible" version="1.1" viewBox="0 0 157.516 157.516" width="30" xml:space="preserve" xmlns="http://www.w3.org/2000/svg" xmlns:xlink="http://www.w3.org/1999/xlink"><g id="icon_2_"><circle cx="78.758" cy="78.758" fill="#e7e4da" r="78.758"/><path d="M71.997,105.9c-15.466-0.272-20.746-0.518-23.997-1.153c-2.195-0.427-4.104-1.363-5.503-2.728   c-1.083-1.027-1.943-2.607-2.615-4.789c-0.573-1.818-0.797-3.328-1.112-7.034c-0.482-8.341-0.601-15.166,0-22.79   c0.497-4.209,0.734-9.205,4.042-12.121c1.559-1.367,3.377-2.245,5.412-2.608c3.182-0.577,16.746-1.032,30.771-1.032   c14.012,0,27.598,0.455,30.779,1.032c2.545,0.454,4.936,1.818,6.334,3.576c3.021,4.513,3.07,10.128,3.37,14.519   c0.126,2.09,0.126,13.97,0,16.068c-0.475,6.936-0.853,9.39-1.937,11.935c-0.664,1.608-1.237,2.454-2.23,3.398   c-1.552,1.447-3.523,2.412-5.663,2.762C96.266,105.887,84.896,106.097,71.997,105.9L71.997,105.9z M92.623,78.017   c-7.446-3.79-14.578-7.303-21.738-10.942V88.84c7.16-3.972,15.627-7.61,21.772-10.855L92.623,78.017L92.623,78.017z" fill="#424242"/></g></svg>